<svg width="41" height="40" viewBox="0 0 41 40" fill="none" xmlns="http://www.w3.org/2000/svg">
<g clip-path="url(#clip0_107_3102)">
<path d="M11.0482 16.9004H6.63701C6.21313 16.9004 5.86951 17.2378 5.86951 17.6541V28.2835C5.86951 28.6997 6.21313 29.0372 6.63701 29.0372H11.0482C11.4721 29.0372 11.8157 28.6997 11.8157 28.2835V17.6541C11.8157 17.2378 11.4721 16.9004 11.0482 16.9004Z" fill="#00963A"/>
<path d="M22.7008 16.9004H18.2896C17.8657 16.9004 17.5221 17.2378 17.5221 17.6541V28.2835C17.5221 28.6997 17.8657 29.0372 18.2896 29.0372H22.7008C23.1247 29.0372 23.4683 28.6997 23.4683 28.2835V17.6541C23.4683 17.2378 23.1247 16.9004 22.7008 16.9004Z" fill="#00963A"/>
<path d="M2.86857 15.276H38.1334C38.5575 15.276 38.9009 14.9387 38.9009 14.5223V11.2549H38.9489L20.9106 0.114908C20.6612 -0.0396048 20.3427 -0.0396048 20.0933 0.114908L2.0531 11.2549H2.10107V14.5223C2.10107 14.9387 2.44453 15.276 2.86857 15.276ZM17.0827 8.94287C17.0827 6.33311 20.1182 4.41866 22.91 6.41979C22.9752 6.4669 23.0328 6.52343 23.0788 6.58749C24.3567 8.32482 24.0459 10.1488 22.9695 11.2549C22.3478 11.8993 21.469 12.2988 20.4962 12.2988C19.5234 12.2988 18.6446 11.8993 18.0229 11.2549C17.4377 10.6538 17.0808 9.8398 17.0808 8.94287H17.0827Z" fill="#00963A"/>
<path d="M38.1641 33.8913V31.5096C38.1641 31.0931 37.8206 30.7559 37.3966 30.7559H3.60534C3.1813 30.7559 2.83784 31.0931 2.83784 31.5096V33.8913C2.83784 34.3078 2.49438 34.6451 2.07034 34.6451H0.767503C0.343458 34.6451 0 34.9824 0 35.3988V39.2465C0 39.663 0.343458 40.0003 0.767503 40.0003H40.2325C40.6565 40.0003 41 39.663 41 39.2465V35.3988C41 34.9824 40.6565 34.6451 40.2325 34.6451H38.9297C38.5056 34.6451 38.1622 34.3078 38.1622 33.8913H38.1641Z" fill="#00963A"/>
<path d="M34.3534 16.9004H29.9422C29.5183 16.9004 29.1747 17.2378 29.1747 17.6541V28.2835C29.1747 28.6997 29.5183 29.0372 29.9422 29.0372H34.3534C34.7773 29.0372 35.1209 28.6997 35.1209 28.2835V17.6541C35.1209 17.2378 34.7773 16.9004 34.3534 16.9004Z" fill="#00963A"/>
</g>
<defs>
<clipPath id="clip0_107_3102">
<rect width="41" height="40" fill="white"/>
</clipPath>
</defs>
</svg>
