<svg width="41" height="40" viewBox="0 0 41 40" fill="none" xmlns="http://www.w3.org/2000/svg">
<g clip-path="url(#clip0_474_4898)">
<path d="M11.0484 16.9004H6.63713C6.21325 16.9004 5.86963 17.2378 5.86963 17.6541V28.2835C5.86963 28.6997 6.21325 29.0372 6.63713 29.0372H11.0484C11.4722 29.0372 11.8159 28.6997 11.8159 28.2835V17.6541C11.8159 17.2378 11.4722 16.9004 11.0484 16.9004Z" fill="#36596C"/>
<path d="M22.7007 16.9004H18.2895C17.8656 16.9004 17.522 17.2378 17.522 17.6541V28.2835C17.522 28.6997 17.8656 29.0372 18.2895 29.0372H22.7007C23.1246 29.0372 23.4682 28.6997 23.4682 28.2835V17.6541C23.4682 17.2378 23.1246 16.9004 22.7007 16.9004Z" fill="#36596C"/>
<path d="M2.86869 15.276H38.1335C38.5576 15.276 38.901 14.9387 38.901 14.5223V11.2549H38.949L20.9108 0.114908C20.6613 -0.0396048 20.3428 -0.0396048 20.0934 0.114908L2.05322 11.2549H2.10119V14.5223C2.10119 14.9387 2.44465 15.276 2.86869 15.276ZM17.0828 8.94287C17.0828 6.33311 20.1183 4.41866 22.9101 6.41979C22.9754 6.4669 23.0329 6.52343 23.079 6.58749C24.3569 8.32482 24.046 10.1488 22.9696 11.2549C22.3479 11.8993 21.4691 12.2988 20.4963 12.2988C19.5235 12.2988 18.6447 11.8993 18.023 11.2549C17.4378 10.6538 17.0809 9.8398 17.0809 8.94287H17.0828Z" fill="#36596C"/>
<path d="M38.1641 33.8913V31.5096C38.1641 31.0931 37.8206 30.7559 37.3966 30.7559H3.60534C3.1813 30.7559 2.83784 31.0931 2.83784 31.5096V33.8913C2.83784 34.3078 2.49438 34.6451 2.07034 34.6451H0.767503C0.343458 34.6451 0 34.9824 0 35.3988V39.2465C0 39.663 0.343458 40.0003 0.767503 40.0003H40.2325C40.6565 40.0003 41 39.663 41 39.2465V35.3988C41 34.9824 40.6565 34.6451 40.2325 34.6451H38.9297C38.5056 34.6451 38.1622 34.3078 38.1622 33.8913H38.1641Z" fill="#36596C"/>
<path d="M34.3535 16.9004H29.9423C29.5184 16.9004 29.1748 17.2378 29.1748 17.6541V28.2835C29.1748 28.6997 29.5184 29.0372 29.9423 29.0372H34.3535C34.7774 29.0372 35.121 28.6997 35.121 28.2835V17.6541C35.121 17.2378 34.7774 16.9004 34.3535 16.9004Z" fill="#36596C"/>
</g>
<defs>
<clipPath id="clip0_474_4898">
<rect width="41" height="40" fill="white"/>
</clipPath>
</defs>
</svg>
