<svg width="36" height="40" viewBox="0 0 36 40" fill="none" xmlns="http://www.w3.org/2000/svg">
<path d="M34.7048 4.41431C35.4611 4.61697 35.9975 5.28623 35.9956 6.06923C35.9703 16.4634 32.4992 35.7782 18.4583 39.9339C18.1604 40.022 17.8352 40.022 17.5373 39.9339C3.49619 35.7783 0.0252791 16.4634 5.05262e-06 6.06923C-0.00189886 5.28623 0.534454 4.61697 1.29078 4.41431L17.5397 0.0603104C17.8398 -0.0201033 18.1558 -0.0201035 18.4559 0.0603102L34.7048 4.41431Z" fill="#36596C"/>
<path d="M23.8608 12.4995C24.6184 11.7499 25.8327 11.7638 26.5733 12.5306C27.3137 13.2974 27.3 14.5266 26.5425 15.2762L16.7303 24.9846C15.9849 25.7221 14.794 25.7221 14.0486 24.9846L9.2828 20.2692C8.52527 19.5196 8.5116 18.2904 9.25208 17.5236C9.99258 16.7567 11.2069 16.7425 11.9645 17.4921L15.3895 20.8809L23.8608 12.4995Z" fill="white"/>
</svg>
