<svg width="40" height="40" viewBox="0 0 40 40" fill="none" xmlns="http://www.w3.org/2000/svg">
<path d="M17.5436 1.22014C18.7772 -0.406714 21.2228 -0.406714 22.4564 1.22014L24.8089 4.32262C25.482 5.21029 26.5816 5.66577 27.6852 5.51403L31.5424 4.98369C33.565 4.70559 35.2944 6.43496 35.0163 8.45758L34.486 12.3148C34.3342 13.4184 34.7897 14.518 35.6774 15.1911L38.7799 17.5436C40.4067 18.7772 40.4067 21.2228 38.7799 22.4564L35.6774 24.8089C34.7897 25.482 34.3342 26.5816 34.486 27.6852L35.0163 31.5424C35.2944 33.565 33.565 35.2944 31.5424 35.0163L27.6852 34.486C26.5816 34.3342 25.482 34.7897 24.8089 35.6774L22.4564 38.7799C21.2228 40.4067 18.7772 40.4067 17.5436 38.7799L15.1911 35.6774C14.518 34.7897 13.4184 34.3342 12.3148 34.486L8.45758 35.0163C6.43496 35.2944 4.70559 33.565 4.98369 31.5424L5.51403 27.6852C5.66577 26.5816 5.21029 25.482 4.32262 24.8089L1.22014 22.4564C-0.406714 21.2228 -0.406714 18.7772 1.22014 17.5436L4.32262 15.1911C5.21029 14.518 5.66577 13.4184 5.51403 12.3148L4.98369 8.45758C4.70559 6.43496 6.43496 4.70559 8.45758 4.98369L12.3148 5.51403C13.4184 5.66577 14.518 5.21029 15.1911 4.32262L17.5436 1.22014Z" fill="#00963A"/>
<path d="M25.9747 13.5098C26.7357 12.7569 27.9554 12.7708 28.6992 13.541C29.443 14.3112 29.4292 15.546 28.6684 16.2989L18.8124 26.0506C18.0636 26.7913 16.8674 26.7913 16.1187 26.0506L11.3316 21.3141C10.5707 20.5612 10.557 19.3265 11.3008 18.5562C12.0446 17.786 13.2643 17.7718 14.0253 18.5246L17.4655 21.9286L25.9747 13.5098Z" fill="white"/>
</svg>
