<svg width="32" height="40" viewBox="0 0 32 40" fill="none" xmlns="http://www.w3.org/2000/svg">
<g clip-path="url(#clip0_107_3091)">
<path d="M31.398 12.669C30.8713 13.1312 30.2201 13.5012 29.5659 13.7495C27.2945 14.6113 24.9956 15.3967 22.7119 16.2211C21.1516 16.7847 20.8583 17.0908 21.0625 18.7192C21.4711 21.9606 21.9671 25.1926 22.5031 28.4167C22.9868 31.3333 23.5765 34.2312 24.111 37.1384C24.3659 38.5186 23.8069 39.4773 22.5568 39.852C21.1915 40.2626 19.9799 39.7833 19.5637 38.4546C19.1321 37.0775 18.9417 35.6239 18.6084 34.214C18.0049 31.669 17.3891 29.1256 16.7425 26.5915C16.6135 26.0888 16.3171 25.6297 16.0975 25.1504C15.9793 25.1582 15.861 25.166 15.7428 25.1754C15.4679 25.9139 15.1101 26.6352 14.935 27.3987C14.184 30.6807 13.4883 33.9782 12.7681 37.268C12.6913 37.6224 12.6114 37.9784 12.4886 38.3156C11.9941 39.6677 10.9144 40.247 9.56915 39.9019C8.21924 39.5553 7.61416 38.617 7.87216 37.1368C8.48799 33.6113 9.17293 30.0967 9.7565 26.565C10.2049 23.8529 10.618 21.1299 10.9006 18.396C11.0742 16.7082 10.7609 16.4397 9.12532 15.9197C7.03058 15.2562 4.93431 14.5973 2.84726 13.9087C2.29132 13.7261 1.74 13.4934 1.23781 13.1968C-0.190417 12.3536 -0.413098 10.5784 0.727949 9.34806C1.27313 8.75944 1.90585 8.672 2.686 8.8578C5.76514 9.59007 8.84428 10.327 11.948 10.9406C15.4694 11.6339 18.9878 11.281 22.4631 10.5425C24.7345 10.06 26.9813 9.4558 29.2342 8.88747C30.3276 8.61111 31.0448 8.87186 31.5762 9.80085C32.1736 10.8454 32.1613 11.9977 31.398 12.669Z" fill="#00963A"/>
<path d="M20.2977 4.34053C20.3085 6.77779 18.3688 8.75132 15.97 8.74039C13.6142 8.73102 11.6946 6.76373 11.6976 4.36083C11.6992 1.96261 13.628 0.00312643 15.9869 3.74799e-06C18.352 -0.00311893 20.2885 1.94543 20.2977 4.34053Z" fill="#00963A"/>
</g>
<defs>
<clipPath id="clip0_107_3091">
<rect width="32" height="40" fill="white"/>
</clipPath>
</defs>
</svg>
