<svg width="32" height="40" viewBox="0 0 32 40" fill="none" xmlns="http://www.w3.org/2000/svg">
<g clip-path="url(#clip0_474_4893)">
<path d="M31.3981 12.669C30.8714 13.1312 30.2202 13.5012 29.566 13.7495C27.2947 14.6113 24.9957 15.3967 22.712 16.2211C21.1517 16.7847 20.8584 17.0908 21.0627 18.7192C21.4712 21.9606 21.9672 25.1926 22.5032 28.4167C22.9869 31.3333 23.5767 34.2312 24.1111 37.1384C24.366 38.5186 23.807 39.4773 22.5569 39.852C21.1917 40.2626 19.98 39.7833 19.5638 38.4546C19.1323 37.0775 18.9418 35.6239 18.6086 34.214C18.005 31.669 17.3892 29.1256 16.7427 26.5915C16.6137 26.0888 16.3173 25.6297 16.0977 25.1504C15.9794 25.1582 15.8612 25.166 15.7429 25.1754C15.468 25.9139 15.1102 26.6352 14.9351 27.3987C14.1841 30.6807 13.4884 33.9782 12.7682 37.268C12.6914 37.6224 12.6115 37.9784 12.4887 38.3156C11.9942 39.6677 10.9146 40.247 9.56927 39.9019C8.21936 39.5553 7.61428 38.617 7.87229 37.1368C8.48811 33.6113 9.17305 30.0967 9.75663 26.565C10.2051 23.8529 10.6182 21.1299 10.9007 18.396C11.0743 16.7082 10.761 16.4397 9.12544 15.9197C7.03071 15.2562 4.93443 14.5973 2.84738 13.9087C2.29144 13.7261 1.74012 13.4934 1.23793 13.1968C-0.190295 12.3536 -0.412976 10.5784 0.728071 9.34806C1.27325 8.75944 1.90598 8.672 2.68613 8.8578C5.76526 9.59007 8.8444 10.327 11.9481 10.9406C15.4695 11.6339 18.9879 11.281 22.4633 10.5425C24.7346 10.06 26.9814 9.4558 29.2343 8.88747C30.3277 8.61111 31.0449 8.87186 31.5763 9.80085C32.1737 10.8454 32.1614 11.9977 31.3981 12.669Z" fill="#36596C"/>
<path d="M20.2978 4.34053C20.3086 6.77779 18.369 8.75132 15.9702 8.74039C13.6143 8.73102 11.6947 6.76373 11.6978 4.36083C11.6993 1.96261 13.6282 0.00312643 15.9871 3.74799e-06C18.3521 -0.00311893 20.2886 1.94543 20.2978 4.34053Z" fill="#36596C"/>
</g>
<defs>
<clipPath id="clip0_474_4893">
<rect width="32" height="40" fill="white"/>
</clipPath>
</defs>
</svg>
