<svg width="48" height="48" viewBox="0 0 48 48" fill="none" xmlns="http://www.w3.org/2000/svg">
<rect width="48" height="48" rx="12" fill="#DBEAFE"/>
<g clip-path="url(#clip0_63_1334)">
<path d="M31.9992 20.2709V19.8608C30.5985 19.8608 29.2478 19.8616 27.8963 19.8608C26.6055 19.8593 25.8588 19.161 25.8498 17.9324C25.8424 16.7742 25.8482 15.6151 25.8482 14.4561V14.0312C25.7506 14.0171 25.699 14.003 25.6466 14.003C23.0222 14.0015 20.3979 13.9929 17.7744 14.014C17.4654 14.0171 17.1278 14.1405 16.8573 14.2936C16.1738 14.6802 16 15.3144 16 16.0361C16.0074 21.2956 16.0041 26.5559 16.0041 31.8154C16.0041 31.9583 16.0008 32.102 16.009 32.2449C16.0713 33.3111 16.827 33.9984 17.9457 33.9991C21.9773 34.0007 26.0088 34.0007 30.0412 33.9991C30.2043 33.9991 30.3715 33.9945 30.5288 33.9609C31.4779 33.7562 31.9967 33.0783 31.9984 32.0278C32.0016 28.1093 31.9992 24.1901 31.9992 20.2716V20.2709ZM20.1971 22.2688C20.3291 22.2445 20.4684 22.2445 20.6036 22.2445C22.869 22.243 25.1335 22.243 27.398 22.2453C27.548 22.2453 27.7013 22.2469 27.8455 22.2766C28.1373 22.3375 28.2848 22.5335 28.2922 22.8085C28.2996 23.1006 28.1561 23.3114 27.8463 23.3802C27.7021 23.4114 27.5488 23.4122 27.3997 23.4122C26.267 23.4145 25.1343 23.4138 24.0025 23.4138C22.8288 23.413 21.6552 23.4294 20.4823 23.3997C20.2446 23.3934 19.9365 23.2693 19.7931 23.0982C19.5357 22.7936 19.7808 22.3453 20.1971 22.2688ZM28.2914 25.168C28.2938 25.4796 28.1233 25.6842 27.7906 25.7358C27.657 25.7561 27.5185 25.7561 27.3824 25.7561C26.2506 25.7576 25.1179 25.7576 23.9852 25.7576C22.8526 25.7576 21.7478 25.7584 20.629 25.7561C20.4799 25.7561 20.3274 25.7553 20.1815 25.7287C19.8685 25.6717 19.7136 25.4687 19.7111 25.1766C19.7086 24.8837 19.8611 24.6783 20.1733 24.6173C20.3184 24.5892 20.4709 24.5884 20.6208 24.5884C22.8714 24.5869 25.1228 24.5869 27.3742 24.5884C27.5103 24.5884 27.648 24.5884 27.7816 24.6072C28.1143 24.6556 28.2897 24.8556 28.2914 25.168ZM25.2376 30.4337C24.4196 30.4517 23.6017 30.4392 22.7837 30.4392V30.4439C21.9928 30.4439 21.2019 30.4517 20.411 30.4407C19.9225 30.4345 19.6562 30.1674 19.7168 29.7753C19.766 29.4559 19.9832 29.2864 20.3053 29.2848C21.9543 29.277 23.6041 29.2747 25.254 29.2887C25.6228 29.2918 25.8392 29.5449 25.8351 29.8675C25.831 30.1892 25.6113 30.4259 25.2376 30.4337ZM28.2938 27.5306C28.2758 27.8649 28.0799 28.057 27.7308 28.0883C27.5414 28.1054 27.3488 28.1008 27.1587 28.1008C26.094 28.1015 25.0302 28.1015 23.9656 28.1015C22.8468 28.1015 21.7281 28.1015 20.6094 28.1C20.4602 28.0992 20.3069 28.0992 20.1627 28.0687C19.8512 28.0031 19.7054 27.793 19.7103 27.5017C19.7152 27.2268 19.8627 27.0307 20.152 26.9651C20.2832 26.9355 20.4225 26.9331 20.5585 26.9331C22.8501 26.9308 25.1425 26.9315 27.4349 26.9315C27.53 26.9315 27.6259 26.9308 27.7209 26.9417C28.0897 26.9839 28.311 27.2057 28.2938 27.5306Z" fill="#155DFC"/>
<path d="M31.5681 18.6868H31.0436C29.9658 18.6868 28.888 18.6892 27.8103 18.686C27.3751 18.6845 27.1022 18.5103 27.0964 18.1518C27.0751 16.9209 27.0882 15.69 27.0882 14.4224C28.5971 15.8587 30.0609 17.2521 31.5681 18.6868Z" fill="#155DFC"/>
</g>
<defs>
<clipPath id="clip0_63_1334">
<rect width="16" height="20" fill="white" transform="translate(16 14)"/>
</clipPath>
</defs>
</svg>
