<svg width="72" height="72" viewBox="0 0 72 72" fill="none" xmlns="http://www.w3.org/2000/svg">
<rect width="72" height="72" rx="16" fill="#CBFBF1"/>
<g clip-path="url(#clip0_63_877)">
<path d="M53.4986 25.4241C53.5014 28.9946 53.5014 32.5652 53.4986 36.1358C53.4986 37.1131 53.101 37.5126 52.1364 37.5208C51.5215 37.5264 50.9067 37.5347 50.2918 37.5181C49.5171 37.4973 49.1182 37.0992 49.11 36.3141C49.0963 34.8267 49.1059 33.3379 49.1059 31.8505C48.9993 31.7648 48.8927 31.6791 48.7861 31.5934C48.6796 31.8229 48.6249 32.1049 48.4582 32.2749C45.0724 35.7224 41.673 39.1561 38.2749 42.5926C36.9018 43.9819 35.7786 43.9819 34.4109 42.5995C33.2181 41.3955 32.0267 40.1901 30.8325 38.9875C30.8025 38.9571 30.756 38.9433 30.6686 38.8935C30.5032 39.0497 30.3201 39.2142 30.148 39.3884C27.5069 42.059 24.8671 44.7311 22.226 47.4017C21.4362 48.2007 20.9444 48.198 20.1533 47.4017C19.8294 47.0769 19.5083 46.7507 19.1873 46.4244C18.265 45.49 18.2691 45.0822 19.2119 44.1284C20.805 42.5152 22.3995 40.9034 23.9927 39.2902C25.6022 37.6618 27.2117 36.0321 28.8226 34.4051C30.1234 33.0905 31.2779 33.0988 32.5937 34.4272C33.8029 35.6464 35.0108 36.867 36.22 38.0862C36.2418 38.1083 36.2705 38.1249 36.2787 38.1277C36.2787 38.1249 36.2774 38.1249 36.2774 38.1249L45.7898 28.5011H42.5338C40.2028 28.5011 40.1468 28.4459 40.1468 26.1166C40.1468 25.8858 40.1441 25.6563 40.1482 25.4255C40.1673 24.4108 40.5635 24.0044 41.5733 24.0031C45.0793 24.0003 48.5853 24.0003 52.0913 24.0031C53.1065 24.0044 53.4986 24.4067 53.4986 25.4241Z" fill="#009689"/>
</g>
<defs>
<clipPath id="clip0_63_877">
<rect width="35" height="24" fill="white" transform="translate(18.5 24)"/>
</clipPath>
</defs>
</svg>
