<svg width="72" height="72" viewBox="0 0 72 72" fill="none" xmlns="http://www.w3.org/2000/svg">
<rect width="72" height="72" rx="16" fill="#D5F0FF"/>
<g clip-path="url(#clip0_474_4538)">
<path d="M39.0282 34.4166C37.0317 34.393 35.0352 34.3989 33.0387 34.4151C29.6496 34.4445 27.4075 36.7308 27.3887 40.1977C27.3714 43.6042 27.383 47.0122 27.3858 50.4188C27.3887 51.6524 27.7181 51.9822 28.9446 51.9851C29.9544 51.9866 30.9642 51.9881 31.974 51.9881C33.3219 51.9881 34.6683 51.9866 36.0147 51.9866H38.1787C39.8632 51.9881 41.5462 51.991 43.2306 51.9822C44.2317 51.9778 44.6189 51.6068 44.6218 50.6205C44.6333 47.0667 44.6724 43.5115 44.6117 39.9592C44.5539 36.6631 42.2858 34.4548 39.0282 34.4166Z" fill="#36596C"/>
<path d="M35.8817 33.0624C39.4904 33.1228 42.3421 30.2889 42.4042 26.5806C42.4649 23.0033 39.5727 20.0207 36.0218 20.0001C32.5532 19.9795 29.6741 22.8531 29.6091 26.401C29.5426 30.0475 32.325 33.0021 35.8817 33.0624Z" fill="#36596C"/>
<path d="M22.5202 37.3035C19.849 37.408 17.5824 39.7237 17.5275 42.4398C17.4842 44.5479 17.4972 46.659 17.526 48.7685C17.5477 50.4173 18.7049 51.782 20.3099 51.8895C21.9596 51.9984 23.6224 51.913 25.2751 51.913C25.3979 47.0447 25.028 42.1836 25.5192 37.2961C24.5354 37.2961 23.5271 37.2637 22.5202 37.3035Z" fill="#36596C"/>
<path d="M54.4929 42.677C54.4799 40.2009 52.8692 37.9927 50.4956 37.4863C49.1969 37.2095 47.8274 37.2861 46.4824 37.2036C46.9837 42.2089 46.6197 47.0743 46.7309 51.9869C47.0054 51.9869 47.29 51.9884 47.5746 51.9854C48.8502 51.9781 50.133 52.0458 51.4 51.9412C53.395 51.7778 54.49 50.4735 54.4944 48.4184C54.4987 46.5046 54.5045 44.5908 54.4929 42.677Z" fill="#36596C"/>
<path d="M24.7407 35.8623C27.4161 35.8623 29.5238 33.6909 29.5152 30.9453C29.508 28.2616 27.3757 26.1152 24.7219 26.1182C22.0695 26.1211 19.9604 28.2646 19.9517 30.9659C19.943 33.7188 22.0406 35.8638 24.7407 35.8623Z" fill="#36596C"/>
<path d="M47.2913 35.8623C49.9856 35.8564 52.0745 33.7027 52.0601 30.9468C52.0456 28.2498 49.9292 26.1167 47.2711 26.1182C44.6231 26.1196 42.4995 28.2749 42.4966 30.9645C42.4937 33.7071 44.6101 35.8682 47.2913 35.8623Z" fill="#36596C"/>
</g>
<defs>
<clipPath id="clip0_474_4538">
<rect width="37" height="32" fill="white" transform="translate(17.5 20)"/>
</clipPath>
</defs>
</svg>
