<svg width="72" height="72" viewBox="0 0 72 72" fill="none" xmlns="http://www.w3.org/2000/svg">
<rect width="72" height="72" rx="16" fill="#E2F5EA"/>
<g clip-path="url(#clip0_63_775)">
<path d="M39.0279 34.4166C37.0315 34.393 35.035 34.3989 33.0385 34.4151C29.6494 34.4445 27.4073 36.7308 27.3885 40.1977C27.3712 43.6042 27.3827 47.0122 27.3856 50.4188C27.3885 51.6524 27.7179 51.9822 28.9444 51.9851C29.9542 51.9866 30.964 51.9881 31.9738 51.9881C33.3216 51.9881 34.668 51.9866 36.0144 51.9866H38.1785C39.8629 51.9881 41.5459 51.991 43.2304 51.9822C44.2315 51.9778 44.6187 51.6068 44.6216 50.6205C44.6331 47.0667 44.6721 43.5115 44.6115 39.9592C44.5537 36.6631 42.2856 34.4548 39.0279 34.4166Z" fill="#00963A"/>
<path d="M35.8815 33.0624C39.4902 33.1228 42.3419 30.2889 42.4041 26.5806C42.4647 23.0033 39.5726 20.0207 36.0217 20.0001C32.5531 19.9795 29.6739 22.8531 29.6089 26.401C29.5425 30.0475 32.3248 33.0021 35.8815 33.0624Z" fill="#00963A"/>
<path d="M22.5201 37.3035C19.849 37.408 17.5823 39.7237 17.5274 42.4398C17.4841 44.5479 17.4971 46.659 17.526 48.7685C17.5477 50.4173 18.7048 51.782 20.3098 51.8895C21.9596 51.9984 23.6224 51.913 25.275 51.913C25.3978 47.0447 25.028 42.1836 25.5192 37.2961C24.5354 37.2961 23.527 37.2637 22.5201 37.3035Z" fill="#00963A"/>
<path d="M54.4928 42.677C54.4798 40.2009 52.869 37.9927 50.4955 37.4863C49.1967 37.2095 47.8272 37.2861 46.4823 37.2036C46.9836 42.2089 46.6195 47.0743 46.7307 51.9869C47.0052 51.9869 47.2898 51.9884 47.5744 51.9854C48.85 51.9781 50.1329 52.0458 51.3998 51.9412C53.3949 51.7778 54.4899 50.4735 54.4942 48.4184C54.4985 46.5046 54.5043 44.5908 54.4928 42.677Z" fill="#00963A"/>
<path d="M24.7405 35.8623C27.416 35.8623 29.5237 33.6909 29.515 30.9453C29.5078 28.2616 27.3755 26.1152 24.7217 26.1182C22.0694 26.1211 19.9602 28.2646 19.9515 30.9659C19.9429 33.7188 22.0405 35.8638 24.7405 35.8623Z" fill="#00963A"/>
<path d="M47.2913 35.8623C49.9855 35.8564 52.0745 33.7027 52.06 30.9468C52.0456 28.2498 49.9292 26.1167 47.271 26.1182C44.623 26.1196 42.4994 28.2749 42.4965 30.9645C42.4936 33.7071 44.61 35.8682 47.2913 35.8623Z" fill="#00963A"/>
</g>
<defs>
<clipPath id="clip0_63_775">
<rect width="37" height="32" fill="white" transform="translate(17.5 20)"/>
</clipPath>
</defs>
</svg>
