<svg width="72" height="72" viewBox="0 0 72 72" fill="none" xmlns="http://www.w3.org/2000/svg">
<rect width="72" height="72" rx="16" fill="#CBFBF1"/>
<g clip-path="url(#clip0_63_865)">
<path d="M42.3151 50.1917H41.5406C34.3731 50.1917 27.2056 50.193 20.0382 50.1917C18.7869 50.1917 18.5273 49.9302 18.5273 48.6786V36.084C19.7718 36.1671 20.9547 36.3019 22.1391 36.3169C24.755 36.3523 27.3723 36.3278 29.9896 36.3278H30.8187C30.8187 37.3083 30.8146 38.2289 30.8201 39.1496C30.8256 40.0566 31.1794 40.4188 32.1014 40.4284C33.2844 40.442 34.4687 40.4406 35.6517 40.4297C36.6229 40.4202 36.9644 40.0729 36.9685 39.1182C36.9713 38.2153 36.9685 37.3138 36.9685 36.4245C38.0504 36.2134 38.0572 36.2106 38.2963 37.1217C38.8427 39.204 40.0257 40.8506 41.7878 42.0667C42.2017 42.3527 42.3301 42.6401 42.3247 43.1181C42.3014 45.4482 42.3151 47.7798 42.3151 50.1917Z" fill="#009689"/>
<path d="M49.2599 25.3727C49.2517 24.4576 48.9102 24.1076 47.9813 24.0926C47.23 24.0817 46.4787 24.0899 45.7288 24.0899H39.0148C39.0148 23.0848 39.0189 22.1805 39.0135 21.2776C39.0094 20.3883 38.672 20.0151 37.7963 20.0097C35.2009 19.9974 32.6069 19.9974 30.0114 20.0097C29.1303 20.0138 28.7793 20.3856 28.7738 21.2585C28.7684 22.1832 28.7738 23.1066 28.7738 24.0899H27.8845C25.2659 24.0899 22.6486 24.0885 20.0313 24.0912C18.8279 24.0926 18.5301 24.3868 18.5287 25.5593C18.5287 27.6471 18.5998 29.7389 18.5055 31.8212C18.4358 33.3465 19.4358 34.323 21.019 34.308C26.4352 34.2549 31.8528 34.2876 37.2704 34.2862C37.5122 34.2862 37.7554 34.2631 38.0053 34.2495C38.3045 31.474 39.5121 29.2759 41.7728 27.7056C44.0472 26.1259 46.5593 25.8031 49.2613 26.4663C49.2613 26.0496 49.264 25.7105 49.2613 25.3727H49.2599ZM36.9262 24.034H30.842V22.1083H36.9262V24.034Z" fill="#009689"/>
<path d="M53.0656 32.4967C51.8786 29.3876 48.5359 27.6049 45.2958 28.3539C42.5788 28.9817 40.4382 31.2534 40.1158 33.8491C39.7361 36.9092 41.1499 39.6017 43.8642 40.9104C44.2549 41.0984 44.3956 41.3122 44.371 41.7316C44.3354 42.3091 44.3614 42.8906 44.3614 43.4816H49.1452C49.1452 43.0377 49.1862 42.6523 49.1356 42.2777C49.0359 41.5192 49.2804 41.1052 50.0194 40.7238C52.955 39.2094 54.2472 35.5937 53.0656 32.4967ZM46.8134 39.5485C44.207 39.5662 42.1252 37.5125 42.1088 34.9114C42.0938 32.3047 44.1497 30.2401 46.7642 30.236C49.3433 30.232 51.4264 32.2748 51.4483 34.8269C51.4688 37.4118 49.387 39.5322 46.8134 39.5485Z" fill="#009689"/>
<path d="M49.0933 50.0809C49.025 51.1922 47.883 52.027 46.7219 51.9998C45.4857 51.9712 44.5158 51.0601 44.3764 49.7813C44.3491 49.5348 44.3628 49.2828 44.3628 49.0336C44.3628 47.9019 44.3628 46.7715 44.3628 45.5771H49.1179C49.1179 47.1011 49.1876 48.5964 49.0947 50.0809H49.0933Z" fill="#009689"/>
<path d="M34.8757 36.4023H32.8895V38.3389H34.8757V36.4023Z" fill="#009689"/>
</g>
<defs>
<clipPath id="clip0_63_865">
<rect width="35" height="32" fill="white" transform="translate(18.5 20)"/>
</clipPath>
</defs>
</svg>
