<svg width="23" height="24" viewBox="0 0 23 24" fill="none" xmlns="http://www.w3.org/2000/svg">
<g clip-path="url(#clip0_474_4577)">
<path d="M22.9919 17.319C22.9861 16.2303 22.4015 15.6646 21.2853 15.6404C20.8451 15.6311 20.4049 15.6392 19.953 15.6392C19.9413 15.3875 19.9319 15.2363 19.9272 15.0839C19.8932 13.9086 19.3439 13.3856 18.1361 13.3833C17.3344 13.381 16.5327 13.3821 15.731 13.3821C14.2157 13.3833 13.7767 13.8001 13.7403 15.2755C13.7379 15.3679 13.7285 15.4614 13.7156 15.6392C13.2274 15.6392 12.7989 15.6311 12.3705 15.6404C11.2308 15.6634 10.6861 16.2038 10.6838 17.3167C10.6803 18.9896 10.6803 20.6625 10.6838 22.3354C10.6861 23.3998 11.2648 23.9921 12.3353 23.9944C15.3272 24.0025 18.3192 24.0025 21.3099 23.9944C22.3651 23.9921 22.9837 23.3837 22.9908 22.3388C23.0037 20.6648 23.0025 18.9919 22.9908 17.319H22.9919ZM18.865 15.5965H14.7673C14.5842 14.5101 14.7427 14.3207 15.7979 14.3196H17.7886C18.9178 14.3207 19.0246 14.442 18.865 15.5965Z" fill="#36596C"/>
<path d="M14.9434 12.396C13.6816 12.6996 12.9433 13.4142 12.7602 14.6427C12.5665 14.6519 12.394 14.6634 12.2214 14.6692C10.773 14.72 9.75299 15.6852 9.7166 17.1064C9.68256 18.4329 9.70721 19.7594 9.70604 21.086C9.70604 21.2926 9.70604 21.5005 9.70604 21.7498H5.43352V19.3958C5.43352 19.203 5.43117 19.0113 5.43235 18.8185C5.43352 18.501 5.34901 18.172 4.97106 18.2517C4.77269 18.2932 4.50742 18.6049 4.49333 18.8093C4.43699 19.5932 4.47103 20.384 4.46868 21.1726C4.46751 21.3596 4.45225 21.5455 4.44169 21.7856C3.10242 21.7856 1.79836 21.8041 0.494302 21.7764C0.0236209 21.7671 -0.0432839 21.4035 0.0212734 21.0202C0.230204 19.771 0.441483 18.523 0.656282 17.2749C0.788918 16.5003 0.881646 15.7152 1.07649 14.9555C1.61525 12.8532 3.65057 11.2576 5.79035 11.1791C6.20586 11.163 6.48405 11.2784 6.72349 11.619C7.34559 12.5022 7.99586 13.3669 8.63791 14.2374C8.6919 14.3113 8.76233 14.3736 8.86093 14.481C9.56871 13.517 10.2694 12.598 10.9279 11.6513C11.1791 11.2888 11.4573 11.1479 11.8998 11.1803C13.0231 11.2611 14.0103 11.6409 14.9434 12.396Z" fill="#36596C"/>
<path d="M13.1871 4.70689C12.9899 6.46867 12.281 8.35861 10.572 9.75557C9.55313 10.5891 8.35941 10.6018 7.26663 9.88257C5.50598 8.72228 4.15262 5.50581 4.57048 3.47041C5.00595 1.3461 7.07883 -0.206716 9.17401 0.023032C11.5403 0.281643 13.2141 2.08499 13.1871 4.70689Z" fill="#36596C"/>
</g>
<defs>
<clipPath id="clip0_474_4577">
<rect width="23" height="24" fill="white"/>
</clipPath>
</defs>
</svg>
