<svg width="23" height="24" viewBox="0 0 23 24" fill="none" xmlns="http://www.w3.org/2000/svg">
<g clip-path="url(#clip0_63_1106)">
<path d="M22.9918 17.319C22.9859 16.2303 22.4014 15.6646 21.2852 15.6404C20.845 15.6311 20.4048 15.6392 19.9529 15.6392C19.9412 15.3875 19.9318 15.2363 19.9271 15.0839C19.8931 13.9086 19.3437 13.3856 18.1359 13.3833C17.3342 13.381 16.5326 13.3821 15.7309 13.3821C14.2155 13.3833 13.7766 13.8001 13.7402 15.2755C13.7378 15.3679 13.7284 15.4614 13.7155 15.6392C13.2272 15.6392 12.7988 15.6311 12.3704 15.6404C11.2306 15.6634 10.686 16.2038 10.6837 17.3167C10.6801 18.9896 10.6801 20.6625 10.6837 22.3354C10.686 23.3998 11.2647 23.9921 12.3352 23.9944C15.3271 24.0025 18.319 24.0025 21.3098 23.9944C22.365 23.9921 22.9836 23.3837 22.9906 22.3388C23.0035 20.6648 23.0024 18.9919 22.9906 17.319H22.9918ZM18.8648 15.5965H14.7672C14.5841 14.5101 14.7426 14.3207 15.7978 14.3196H17.7885C18.9177 14.3207 19.0245 14.442 18.8648 15.5965Z" fill="#00963A"/>
<path d="M14.9433 12.396C13.6815 12.6996 12.9432 13.4142 12.7601 14.6427C12.5664 14.6519 12.3938 14.6634 12.2213 14.6692C10.7729 14.72 9.75287 15.6852 9.71648 17.1064C9.68244 18.4329 9.70709 19.7594 9.70592 21.086C9.70592 21.2926 9.70592 21.5005 9.70592 21.7498H5.4334V19.3958C5.4334 19.203 5.43105 19.0113 5.43223 18.8185C5.4334 18.501 5.34889 18.172 4.97093 18.2517C4.77257 18.2932 4.5073 18.6049 4.49321 18.8093C4.43687 19.5932 4.47091 20.384 4.46856 21.1726C4.46739 21.3596 4.45213 21.5455 4.44157 21.7856C3.10229 21.7856 1.79824 21.8041 0.49418 21.7764C0.0234988 21.7671 -0.043406 21.4035 0.0211513 21.0202C0.230082 19.771 0.441361 18.523 0.65616 17.2749C0.788796 16.5003 0.881524 15.7152 1.07637 14.9555C1.61513 12.8532 3.65045 11.2576 5.79023 11.1791C6.20574 11.163 6.48392 11.2784 6.72337 11.619C7.34547 12.5022 7.99574 13.3669 8.63779 14.2374C8.69178 14.3113 8.76221 14.3736 8.8608 14.481C9.56859 13.517 10.2693 12.598 10.9278 11.6513C11.179 11.2888 11.4572 11.1479 11.8997 11.1803C13.023 11.2611 14.0101 11.6409 14.9433 12.396Z" fill="#00963A"/>
<path d="M13.1872 4.70689C12.99 6.46867 12.2811 8.35861 10.5721 9.75557C9.55325 10.5891 8.35953 10.6018 7.26675 9.88257C5.5061 8.72228 4.15274 5.50581 4.57061 3.47041C5.00607 1.3461 7.07895 -0.206716 9.17413 0.023032C11.5404 0.281643 13.2142 2.08499 13.1872 4.70689Z" fill="#00963A"/>
</g>
<defs>
<clipPath id="clip0_63_1106">
<rect width="23" height="24" fill="white"/>
</clipPath>
</defs>
</svg>
