<svg width="21" height="24" viewBox="0 0 21 24" fill="none" xmlns="http://www.w3.org/2000/svg">
<g clip-path="url(#clip0_63_1213)">
<path d="M20.727 22.743C20.3705 22.3755 19.9944 22.0268 19.6081 21.6527C21.9667 18.4596 21.0567 14.7133 18.7185 12.7661C16.2327 10.6961 12.6845 10.8358 10.3436 13.0708C8.09918 15.2149 7.7946 18.7989 9.59327 21.3583C11.2647 23.7349 15.1537 25.2321 18.699 22.6033C19.0398 22.9699 19.3797 23.3543 19.7399 23.7171C20.0965 24.0761 20.5051 24.0893 20.7976 23.7789C21.0845 23.4752 21.0697 23.0955 20.727 22.743ZM18.114 21.1455C17.6321 20.5221 17.1743 19.9277 16.6951 19.3071C17.5327 17.7489 17.3999 16.4964 16.2531 15.5936C15.2976 14.8427 13.8713 14.9177 12.9687 15.7455C12.185 16.4636 11.7002 17.9327 12.717 19.2986C12.2407 19.9136 11.7736 20.5164 11.3009 21.1286C10.1885 20.4321 9.52456 18.2271 9.95542 16.4477C10.4336 14.4724 12.2332 12.9161 14.1471 12.7371C16.5883 12.5093 18.4966 13.9474 19.2339 15.7868C19.9953 17.6852 19.4994 19.9671 18.114 21.1455Z" fill="#155DFC"/>
<path d="M6.97559 19.6322C6.95981 20.0382 6.65245 20.235 6.27451 20.2369C4.43405 20.2482 2.59359 20.2472 0.752201 20.2388C0.369624 20.2369 0.0678325 20.0307 0.0362606 19.6388C-0.0593839 18.4182 0.0186174 17.2266 0.901704 16.2591C1.10971 16.0303 1.34835 15.8316 1.57307 15.6197C0.701129 14.1113 0.799559 12.7978 1.84886 11.9185C2.83781 11.0888 4.2604 11.101 5.20756 11.9466C6.25315 12.8803 6.33673 14.1835 5.43414 15.6319C6.21137 16.1982 6.77316 16.935 6.91988 17.9072C7.00531 18.4725 6.99788 19.0585 6.97559 19.6322Z" fill="#155DFC"/>
<path d="M18.179 8.33894C18.1437 8.69707 17.8902 8.92113 17.5048 8.92113C15.6328 8.923 13.7607 8.92863 11.8887 8.91644C11.4402 8.91269 11.2396 8.653 11.2081 8.14113C11.118 6.62707 11.4263 5.27707 12.7774 4.35457C11.8841 2.81144 11.9881 1.5055 13.0355 0.624253C14.0189 -0.204497 15.3895 -0.209185 16.3561 0.613003C17.4138 1.51113 17.5169 2.79832 16.6384 4.33957C16.7619 4.44363 16.8938 4.54581 17.0173 4.65738C18.1205 5.65394 18.3117 6.95144 18.179 8.33894Z" fill="#155DFC"/>
<path d="M6.97463 8.34298C6.96255 8.69361 6.71184 8.91392 6.35712 8.91486C4.4563 8.9233 2.55455 8.92704 0.653733 8.91204C0.248869 8.90923 0.048294 8.60736 0.016722 8.14423C-0.0854225 6.60955 0.257226 5.2633 1.58975 4.3483C0.676019 2.84923 0.774449 1.57611 1.85532 0.620795C2.76627 -0.184517 4.14522 -0.208892 5.09424 0.56267C6.23268 1.48798 6.35154 2.69642 5.4471 4.35017C6.21133 4.91736 6.78241 5.64579 6.9217 6.61892C7.00341 7.18517 6.99598 7.76923 6.97463 8.34298Z" fill="#155DFC"/>
</g>
<defs>
<clipPath id="clip0_63_1213">
<rect width="21" height="24" fill="white"/>
</clipPath>
</defs>
</svg>
