<svg width="72" height="72" viewBox="0 0 72 72" fill="none" xmlns="http://www.w3.org/2000/svg">
<rect width="72" height="72" rx="16" fill="#F3E8FF"/>
<g clip-path="url(#clip0_63_924)">
<path d="M40.4456 30.001C38.7166 30.001 37.9995 29.275 37.9982 27.5242V20H37.3136C33.6282 20 29.9416 20 26.255 20.0012C24.7796 20.0012 24 20.791 24 22.2856C24 31.4281 24 40.5706 24 49.7131C24 51.229 24.7796 51.9987 26.3149 51.9987C32.7712 52 39.2275 52 45.6838 51.9987C47.2192 51.9987 47.9975 51.229 47.9975 49.7106C47.9987 43.3799 47.9988 37.0491 47.9988 30.7183V30.001H40.4443H40.4456ZM31.9567 47.9736H28.0314V42.049H31.9567V47.9736ZM37.957 47.9736H34.0318V38.0501H37.957V47.9736ZM43.9748 47.9674H40.0483V34.0437H43.9748V47.9674Z" fill="#9810FA"/>
<path d="M47.8438 27.9528H40.052V20.1475C42.6593 22.758 45.2428 25.3473 47.8438 27.9528Z" fill="#9810FA"/>
</g>
<defs>
<clipPath id="clip0_63_924">
<rect width="24" height="32" fill="white" transform="translate(24 20)"/>
</clipPath>
</defs>
</svg>
