<svg width="48" height="48" viewBox="0 0 48 48" fill="none" xmlns="http://www.w3.org/2000/svg">
<rect width="48" height="48" rx="12" fill="#FEF9C2"/>
<g clip-path="url(#clip0_63_1344)">
<path d="M13 19.8486V20.4583C13 24.1685 13 27.8787 13 31.5889C13 31.7797 13 31.9715 13.0137 32.1623C13.102 33.3719 13.7942 33.9984 15.0447 33.9993C19.1268 34.0002 23.209 33.9993 27.2911 33.9993C29.0362 33.9993 30.7812 34.0019 32.5263 33.9984C34.0519 33.9966 35 33.0848 35 31.6269V19.8486H13ZM22.3283 22.8679C22.3283 22.5118 22.5232 22.3068 22.8775 22.2944C23.4385 22.2741 24.0005 22.2741 24.5606 22.2918C24.9395 22.3032 25.1371 22.5286 25.1417 22.8944C25.149 23.3945 25.1526 23.8955 25.1417 24.3956C25.1307 24.8391 24.9613 24.9911 24.4968 25.0017C24.2391 25.0079 23.9813 25.0026 23.7227 25.0026C23.4503 25.0017 23.1771 25.0052 22.9039 25.0008C22.5396 24.9946 22.3365 24.8117 22.331 24.4574C22.3219 23.9273 22.3283 23.398 22.3283 22.8679ZM16.9045 22.8926C16.9127 22.4755 17.1541 22.2838 17.573 22.2829C18.0585 22.2829 18.5439 22.2741 19.0294 22.2856C19.5403 22.2971 19.6952 22.4596 19.7034 22.9606C19.7079 23.1815 19.7043 23.4024 19.7043 23.6233C19.7362 25.0609 19.6815 25.0238 18.2853 25.0044C18.0886 25.0008 17.8909 25.0044 17.6942 25.0035C17.0566 24.9991 16.91 24.8648 16.9018 24.2613C16.8963 23.8053 16.8954 23.3485 16.9045 22.8926ZM18.2379 31.0022C16.9009 30.9898 16.9 30.9995 16.9009 29.683C16.9009 29.4338 16.8927 29.1837 16.9036 28.9354C16.9237 28.4539 17.1085 28.2798 17.6022 28.2675C17.8445 28.2622 18.0858 28.2666 18.3281 28.2666C19.83 28.2295 19.6988 28.347 19.7088 29.5813C19.7198 31.0419 19.7088 31.0154 18.2379 31.0022ZM25.1408 30.4252C25.1326 30.8166 24.9185 31.0136 24.505 31.0004C24.2482 30.9924 23.9904 31.0004 23.7336 31.0004C22.2681 31.0251 22.3073 31.026 22.3273 29.6282C22.331 29.364 22.3246 29.0998 22.3292 28.8356C22.3365 28.4804 22.5432 28.286 22.8929 28.2745C23.4522 28.256 24.0123 28.256 24.5715 28.2754C24.924 28.2869 25.1298 28.499 25.1389 28.8418C25.1526 29.3702 25.1508 29.8986 25.1408 30.4261V30.4252ZM27.8021 22.9129C27.8039 22.5241 28.0088 22.2997 28.4096 22.2891C28.9551 22.275 29.5025 22.2714 30.0481 22.2918C30.4215 22.3059 30.6237 22.5153 30.62 22.8944C30.6155 23.3954 30.6246 23.8955 30.6173 24.3956C30.6109 24.8453 30.4552 24.9911 29.9825 25.0017C29.7247 25.0079 29.4661 25.0026 29.2083 25.0026C28.9506 25.0026 28.6928 24.9991 28.4342 25.0035C28.0207 25.0097 27.813 24.802 27.8048 24.4141C27.7939 23.914 27.7993 23.413 27.8021 22.9129ZM30.62 29.6405C30.6164 29.9039 30.62 30.168 30.6182 30.4322C30.6155 30.8104 30.4169 30.9986 30.028 30.9986H29.2111C27.8185 31.0207 27.782 31.0622 27.7975 29.6202C27.813 28.2666 27.8012 28.2798 29.2029 28.263C30.7157 28.2445 30.6355 28.316 30.62 29.6405Z" fill="#F0B101"/>
<path d="M34.939 18.4197H13.0601C13.0401 18.3366 13.0036 18.2562 13.0045 18.175C13.0082 17.3665 12.9818 16.5553 13.0346 15.7486C13.1047 14.6795 13.8534 14.038 14.9482 14.0345C15.5657 14.0327 16.1832 14.0345 16.8499 14.0345C16.8499 14.6821 16.8471 15.2812 16.8508 15.8812C16.8544 16.4113 17.0921 16.6888 17.5284 16.6861C17.961 16.6835 18.2124 16.3945 18.2179 15.875C18.2242 15.2759 18.2197 14.6768 18.2197 14.0565H29.1719C29.1719 14.7033 29.1701 15.3316 29.1719 15.9598C29.1737 16.285 29.3112 16.5801 29.6373 16.6349C29.8668 16.6729 30.1637 16.5748 30.3659 16.444C30.488 16.3645 30.5271 16.1074 30.5326 15.9289C30.5517 15.3148 30.5399 14.7007 30.5399 14C31.4443 14.0389 32.3159 13.9903 33.1529 14.1325C34.3041 14.3269 34.9344 15.1743 34.9381 16.2982C34.9408 16.9883 34.939 17.6784 34.939 18.4197Z" fill="#F0B101"/>
</g>
<defs>
<clipPath id="clip0_63_1344">
<rect width="22" height="20" fill="white" transform="translate(13 14)"/>
</clipPath>
</defs>
</svg>
