<svg width="16" height="24" viewBox="0 0 16 24" fill="none" xmlns="http://www.w3.org/2000/svg">
<g clip-path="url(#clip0_63_1101)">
<path d="M13.9945 6.1508C13.9963 9.55354 11.3392 12.3035 8.0251 12.3288C4.72651 12.354 1.98649 9.53949 2.00744 6.14705C2.02749 2.73962 4.70281 -0.00187228 8.00596 9.59409e-07C11.3164 0.0018742 13.9917 2.74992 13.9945 6.1508Z" fill="white"/>
<path d="M15.9997 22.0003C15.996 22.7674 15.6744 23.2657 14.9427 23.4165C13.7563 23.66 12.5608 23.8717 11.3607 24.0272C9.44351 24.2744 7.51265 24.325 5.59181 24.1143C4.0883 23.9494 2.593 23.6984 1.10317 23.4305C0.314057 23.2891 -0.0385824 22.7084 0.00333346 21.8523C0.114502 19.6016 1.12504 17.8099 2.71693 16.3366C3.17527 15.9123 3.72017 15.5882 4.2177 15.207C4.47101 15.0131 4.63685 15.0281 4.85281 15.2988C5.44783 16.0471 6.08113 16.7637 6.69802 17.4933C7.52631 18.4749 8.45119 18.4861 9.27675 17.5204C9.98659 16.6897 10.6928 15.857 11.4218 15C13.0528 15.8917 14.3139 17.1299 15.1778 18.783C15.7017 19.7843 16.0042 20.852 15.9997 22.0003Z" fill="white"/>
</g>
<defs>
<clipPath id="clip0_63_1101">
<rect width="16" height="24" fill="white"/>
</clipPath>
</defs>
</svg>
