<svg width="72" height="72" viewBox="0 0 72 72" fill="none" xmlns="http://www.w3.org/2000/svg">
<rect width="72" height="72" rx="16" fill="#F3E8FF"/>
<g clip-path="url(#clip0_63_912)">
<path d="M49.7622 43.2595C46.4281 45.2911 43.0913 47.3173 39.7436 49.3262C38.9179 49.8218 37.9987 49.9057 37.066 49.6646C34.8907 49.1037 32.7207 48.5162 30.5413 47.97C30.1203 47.8648 29.6641 47.8994 29.059 47.8581C28.1222 46.2289 27.0853 44.4251 25.9821 42.5095C27.6566 41.6249 29.239 40.6924 30.9122 39.9557C31.5024 39.696 32.3484 39.7706 33.0117 39.9397C34.8365 40.4073 36.6247 41.0095 38.4305 41.5517C39.4187 41.8487 39.9034 42.8319 39.481 43.7018C39.1642 44.3532 38.6268 44.5903 37.8498 44.3945C36.8034 44.1294 35.7584 43.8616 34.7201 43.5699C34.318 43.458 33.9688 43.466 33.851 43.9083C33.7414 44.3186 34.0311 44.4878 34.4074 44.5823C35.5174 44.8648 36.6193 45.1858 37.732 45.4576C38.5808 45.6641 39.3104 45.4922 39.9291 44.8035C40.2106 44.4918 40.6722 44.3346 41.0553 44.1134C42.8449 43.0863 44.6115 42.0113 46.4417 41.0574C47.1929 40.6658 48.0701 40.4393 48.9175 40.3154C49.6743 40.2062 50.1968 40.6858 50.4188 41.3918C50.6421 42.1005 50.3971 42.8732 49.7622 43.2595Z" fill="#9810FA"/>
<path d="M46.4796 25.6231C45.597 24.8851 45.0569 24.0271 44.8728 22.8841C44.7252 21.961 44.1012 21.504 43.1509 21.5187C42.0828 21.536 41.1867 21.2309 40.361 20.5502C39.4756 19.8188 38.8367 19.8135 37.9379 20.5529C37.0891 21.2509 36.1686 21.5453 35.0802 21.5213C34.222 21.504 33.5844 21.9929 33.4396 22.8189C33.2392 23.9645 32.7546 24.8824 31.8111 25.6164C31.16 26.124 31.007 26.858 31.3901 27.5361C32.0074 28.6271 32.3647 29.7248 31.9695 30.8199C31.918 31.7257 32.3187 32.3532 33.2067 32.6676C34.1881 33.0139 34.907 33.5828 35.4349 34.478C36.0251 35.4811 36.6356 35.6876 37.7741 35.288C38.7122 34.9576 39.5866 34.9576 40.5261 35.288C41.6767 35.6929 42.2724 35.4745 42.9045 34.4194C43.3986 33.5934 44.0538 33.0499 44.9635 32.7115C46.1168 32.2839 46.462 31.8017 46.2617 30.6307C46.0776 29.5503 46.2982 28.6391 46.8248 27.7133C47.304 26.87 47.2065 26.2305 46.4796 25.6231ZM39.1751 33.0193C36.2173 33.0406 33.8335 30.7373 33.8051 27.8305C33.7753 24.8944 36.1239 22.5111 39.0898 22.4658C42.0138 22.4205 44.4978 24.8198 44.5222 27.7106C44.5465 30.62 42.1505 32.9993 39.1751 33.0193Z" fill="#9810FA"/>
<path d="M28.9345 49.8114C28.7233 49.4197 28.4945 49.0374 28.2725 48.6524C27.0745 46.5702 25.8792 44.4867 24.6758 42.4072C24.2589 41.6878 23.9353 41.6079 23.1949 42.0089C22.8591 42.19 22.5248 42.3725 22.1931 42.5617C21.4175 43.0027 21.3241 43.3037 21.7586 44.0617C23.1529 46.4929 24.5512 48.9215 25.9564 51.346C26.0755 51.5512 26.219 51.803 26.4166 51.8922C27.2627 52.2772 27.7744 51.5272 28.4106 51.2328C28.7328 51.0836 28.9643 50.7479 29.216 50.5148C29.082 50.1751 29.0265 49.9832 28.9345 49.8114ZM23.4656 44.2109C23.3059 44.2136 23.0189 43.9019 23.0108 43.7194C23.0026 43.5555 23.2896 43.2411 23.4548 43.2371C23.6686 43.2318 23.8907 43.4649 24.2832 43.6994C23.8961 43.9578 23.6835 44.2069 23.4656 44.2109Z" fill="#9810FA"/>
<path d="M37.2839 36.536C36.8129 37.5324 36.3878 38.433 35.8842 39.4974C35.489 38.8406 35.1383 38.3171 34.8514 37.7629C34.6605 37.3939 34.4236 37.3219 34.0392 37.4032C33.4544 37.5284 32.8587 37.6083 32.0587 37.7416C32.6787 36.428 33.2107 35.297 33.8158 34.0142C34.6497 35.333 35.3955 36.6332 37.2839 36.536Z" fill="#9810FA"/>
<path d="M46.2358 37.7312C45.513 37.618 44.9336 37.5727 44.3813 37.4262C43.8682 37.2916 43.5948 37.4328 43.3701 37.8884C43.117 38.3986 42.7907 38.8729 42.4144 39.4977C41.9189 38.4533 41.4858 37.5434 41.0106 36.5416C42.8557 36.6455 43.6462 35.3959 44.472 34.0078C45.0812 35.2947 45.624 36.4404 46.2358 37.7312Z" fill="#9810FA"/>
<path d="M39.1291 23.5304C36.7845 23.545 34.8934 25.4207 34.8866 27.7387C34.8798 30.1046 36.7737 31.9697 39.1683 31.9563C41.5143 31.9443 43.4324 30.0633 43.4392 27.768C43.446 25.462 41.4669 23.5144 39.1291 23.5304ZM41.7241 26.9887C40.8645 27.8373 40.0022 28.6805 39.1521 29.5371C38.7175 29.9767 38.3074 29.9754 37.8769 29.5424C37.4505 29.1148 37.0187 28.6939 36.5855 28.2742C36.22 27.9199 36.0467 27.5162 36.4623 27.1232C36.844 26.7622 37.2488 26.9021 37.5791 27.2604C37.8661 27.5722 38.1449 27.8892 38.4373 28.2169C39.255 27.419 39.9927 26.7049 40.7224 25.9829C41.0621 25.6459 41.4317 25.4633 41.8364 25.8417C42.2696 26.248 42.0828 26.6343 41.7241 26.9887Z" fill="#9810FA"/>
</g>
<defs>
<clipPath id="clip0_63_912">
<rect width="29" height="32" fill="white" transform="translate(21.5 20)"/>
</clipPath>
</defs>
</svg>
