<svg width="48" height="48" viewBox="0 0 48 48" fill="none" xmlns="http://www.w3.org/2000/svg">
<rect width="48" height="48" rx="12" fill="#F3E8FF"/>
<g clip-path="url(#clip0_80_1567)">
<path d="M27.3342 19.5008C26.0374 19.5008 25.4996 18.9562 25.4987 17.6431V12H24.9852C22.2212 12 19.4562 12 16.6912 12.0009C15.5847 12.0009 15 12.5933 15 13.7142C15 20.5711 15 27.428 15 34.2848C15 35.4217 15.5847 35.9991 16.7362 35.9991C21.5784 36 26.4206 36 31.2629 35.9991C32.4144 35.9991 32.9981 35.4217 32.9981 34.283C32.9991 29.5349 32.9991 24.7868 32.9991 20.0387V19.5008H27.3332H27.3342ZM20.9675 32.9802H18.0236V28.5367H20.9675V32.9802ZM25.4678 32.9802H22.5238V25.5375H25.4678V32.9802ZM29.9811 32.9755H27.0362V22.5327H29.9811V32.9755Z" fill="#9810FA"/>
<path d="M32.8829 17.9644H27.039V12.1104C28.9945 14.0683 30.9321 16.0102 32.8829 17.9644Z" fill="#9810FA"/>
</g>
<defs>
<clipPath id="clip0_80_1567">
<rect width="18" height="24" fill="white" transform="translate(15 12)"/>
</clipPath>
</defs>
</svg>
