<svg width="48" height="48" viewBox="0 0 48 48" fill="none" xmlns="http://www.w3.org/2000/svg">
<rect width="48" height="48" rx="12" fill="#E2F5EA"/>
<g clip-path="url(#clip0_80_1546)">
<path d="M21.1205 21.9125C21.1115 22.4589 20.7901 22.7673 20.2527 22.7738C19.3459 22.7841 18.439 22.7766 17.5321 22.7766C16.6253 22.7766 15.8083 22.7813 14.9468 22.7757C14.305 22.771 14.0082 22.4617 14.0045 21.7991C14.0009 20.8937 13.9964 19.9883 14.0073 19.0839C14.02 17.9948 14.8179 17.1626 15.8745 17.1494C17.0074 17.1344 18.1422 17.1344 19.275 17.1494C20.279 17.1626 21.0652 17.9236 21.1078 18.963C21.1487 19.9443 21.1351 20.9284 21.1205 21.9116V21.9125Z" fill="#00963A"/>
<path d="M33.9964 35.0468C33.9927 35.6851 33.695 35.9934 33.0795 35.9962C32.1872 36.0019 31.2958 35.9981 30.4034 35.9981C29.5111 35.9981 28.7104 36 27.8635 35.9972C27.1754 35.9962 26.8831 35.716 26.8758 35.0253C26.8658 34.1517 26.8604 33.2773 26.8767 32.4038C26.9003 31.1554 27.6756 30.3756 28.8829 30.37C29.9405 30.3653 30.9989 30.3634 32.0565 30.37C33.1948 30.3784 33.9864 31.1994 33.9964 32.3775C34.0027 33.267 34.0018 34.1564 33.9964 35.0459V35.0468Z" fill="#00963A"/>
<path d="M32.8762 27.7972C32.8444 29.1937 31.7342 30.3137 30.3907 30.3053C29.0472 30.2969 27.9452 29.145 27.9515 27.7569C27.957 26.3642 29.0617 25.2226 30.4061 25.2217C31.7614 25.2198 32.9071 26.4148 32.8762 27.7972Z" fill="#00963A"/>
<path d="M20.0503 14.5261C20.0585 15.9085 18.9483 17.0754 17.6157 17.0866C16.2667 17.0969 15.1175 15.9169 15.1247 14.5289C15.132 13.1643 16.2304 12.0161 17.5448 12.0002C18.9237 11.9824 20.0412 13.109 20.0503 14.5261Z" fill="#00963A"/>
<path d="M24.8134 30.6485C24.7952 31.1227 24.4421 31.4461 23.9265 31.4536C23.7912 31.4554 23.6551 31.4376 23.5189 31.4283C20.2936 31.1799 17.6828 28.8874 16.9557 25.6614C16.8568 25.2228 16.8649 24.8141 17.2952 24.5526C17.8253 24.2312 18.3836 24.5358 18.5343 25.2443C18.715 26.0972 19.0599 26.8676 19.5837 27.549C20.7075 29.0083 22.1944 29.7159 23.9837 29.7956C24.4938 29.8181 24.8324 30.1817 24.8134 30.6485Z" fill="#00963A"/>
<path d="M30.7511 23.4173C30.2291 23.7847 29.6255 23.481 29.4693 22.7574C29.2859 21.9045 28.9437 21.1332 28.4208 20.4518C27.3106 19.0047 25.841 18.2915 24.0681 18.2052C23.5162 18.1781 23.1721 17.8369 23.1875 17.3542C23.203 16.8631 23.5679 16.5416 24.1135 16.5445C24.2351 16.5454 24.3558 16.5594 24.4766 16.5669C27.7155 16.8238 30.3072 19.0966 31.0443 22.3291C31.1405 22.7481 31.1396 23.1445 30.7511 23.4173Z" fill="#00963A"/>
</g>
<defs>
<clipPath id="clip0_80_1546">
<rect width="20" height="24" fill="white" transform="translate(14 12)"/>
</clipPath>
</defs>
</svg>
