<svg width="48" height="48" viewBox="0 0 48 48" fill="none" xmlns="http://www.w3.org/2000/svg">
<rect width="48" height="48" rx="12" fill="#D5F0FF"/>
<g clip-path="url(#clip0_474_4745)">
<path d="M21.1206 21.9125C21.1115 22.4589 20.7902 22.7673 20.2528 22.7738C19.3459 22.7841 18.4391 22.7766 17.5322 22.7766C16.6253 22.7766 15.8083 22.7813 14.9469 22.7757C14.3051 22.771 14.0082 22.4617 14.0046 21.7991C14.001 20.8937 13.9964 19.9883 14.0073 19.0839C14.02 17.9948 14.818 17.1626 15.8746 17.1494C17.0075 17.1344 18.1422 17.1344 19.2751 17.1494C20.2791 17.1626 21.0652 17.9236 21.1079 18.963C21.1487 19.9443 21.1351 20.9284 21.1206 21.9116V21.9125Z" fill="#36596C"/>
<path d="M33.9963 35.0468C33.9926 35.6851 33.6949 35.9934 33.0794 35.9962C32.1871 36.0019 31.2956 35.9981 30.4033 35.9981C29.511 35.9981 28.7103 36 27.8634 35.9972C27.1753 35.9962 26.883 35.716 26.8757 35.0253C26.8657 34.1517 26.8603 33.2773 26.8766 32.4038C26.9002 31.1554 27.6754 30.3756 28.8828 30.37C29.9403 30.3653 30.9988 30.3634 32.0563 30.37C33.1947 30.3784 33.9863 31.1994 33.9963 32.3775C34.0026 33.267 34.0017 34.1564 33.9963 35.0459V35.0468Z" fill="#36596C"/>
<path d="M32.8763 27.7972C32.8446 29.1937 31.7344 30.3137 30.3909 30.3053C29.0474 30.2969 27.9453 29.145 27.9517 27.7569C27.9571 26.3642 29.0619 25.2226 30.4063 25.2217C31.7616 25.2198 32.9072 26.4148 32.8763 27.7972Z" fill="#36596C"/>
<path d="M20.0501 14.5261C20.0583 15.9085 18.9481 17.0754 17.6155 17.0866C16.2665 17.0969 15.1173 15.9169 15.1245 14.5289C15.1318 13.1643 16.2302 12.0161 17.5447 12.0002C18.9236 11.9824 20.041 13.109 20.0501 14.5261Z" fill="#36596C"/>
<path d="M24.8132 30.6485C24.7951 31.1227 24.442 31.4461 23.9264 31.4536C23.7911 31.4554 23.6549 31.4376 23.5188 31.4283C20.2935 31.1799 17.6827 28.8874 16.9556 25.6614C16.8566 25.2228 16.8648 24.8141 17.2951 24.5526C17.8252 24.2312 18.3835 24.5358 18.5342 25.2443C18.7148 26.0972 19.0598 26.8676 19.5836 27.549C20.7074 29.0083 22.1943 29.7159 23.9835 29.7956C24.4937 29.8181 24.8323 30.1817 24.8132 30.6485Z" fill="#36596C"/>
<path d="M30.7511 23.4173C30.2291 23.7847 29.6254 23.481 29.4693 22.7574C29.2859 21.9045 28.9437 21.1332 28.4208 20.4518C27.3106 19.0047 25.8409 18.2915 24.068 18.2052C23.5161 18.1781 23.1721 17.8369 23.1875 17.3542C23.2029 16.8631 23.5679 16.5416 24.1134 16.5445C24.2351 16.5454 24.3558 16.5594 24.4765 16.5669C27.7155 16.8238 30.3072 19.0966 31.0443 22.3291C31.1405 22.7481 31.1396 23.1445 30.7511 23.4173Z" fill="#36596C"/>
</g>
<defs>
<clipPath id="clip0_474_4745">
<rect width="20" height="24" fill="white" transform="translate(14 12)"/>
</clipPath>
</defs>
</svg>
