<svg width="48" height="48" viewBox="0 0 48 48" fill="none" xmlns="http://www.w3.org/2000/svg">
<rect width="48" height="48" rx="12" fill="#E2F5EA"/>
<g clip-path="url(#clip0_63_1323)">
<path d="M33.2326 16.6697C31.8995 16.6643 30.5673 16.6688 29.2341 16.667C29.0751 16.667 28.9161 16.6537 28.7409 16.6448C28.7257 16.3498 28.7221 16.0993 28.6987 15.8514C28.6035 14.8234 27.883 14.0558 26.841 14.0318C24.941 13.9883 23.0374 13.9883 21.1375 14.0345C20.1197 14.0594 19.4001 14.8279 19.304 15.8283C19.2779 16.0895 19.2725 16.3525 19.2546 16.6688C19.0345 16.6688 18.844 16.6679 18.6536 16.6688C17.2019 16.6768 15.7475 16.6457 14.2985 16.7079C13.2708 16.7514 12.4668 17.6212 12.5162 18.6358C12.5665 19.6638 12.6321 20.7148 12.8872 21.7054C13.4729 23.9825 14.8716 25.5693 17.3196 25.898C18.5988 26.0695 19.9166 25.9602 21.2174 25.9753C21.239 25.9762 21.2605 25.9416 21.3046 25.9043C21.3046 25.4938 21.2956 25.0647 21.3063 24.6364C21.3324 23.5587 22.1948 22.6996 23.2809 22.6703C23.7301 22.6578 24.1792 22.6632 24.6284 22.6676C25.8232 22.6818 26.6829 23.5374 26.6954 24.7244C26.7008 25.1349 26.6963 25.5453 26.6963 25.9753C27.848 25.9753 28.9548 26.0215 30.0561 25.9664C32.4942 25.843 34.1534 24.5733 34.9583 22.2811C35.3401 21.1954 35.4883 20.0698 35.4982 18.9246C35.5099 17.4728 34.7095 16.6768 33.2326 16.6697ZM27.3162 16.6483H20.7143C20.4493 15.7288 20.7377 15.3388 21.6666 15.3379C23.1928 15.337 24.7191 15.3379 26.2445 15.3379C27.2569 15.3379 27.4797 15.5991 27.3162 16.6483Z" fill="#00963A"/>
<path d="M35.5 33.1008C35.4991 33.7813 35.2844 33.9981 34.5837 33.9981C27.5309 33.9999 20.4781 33.9999 13.4244 33.9981C12.7021 33.9981 12.5 33.7884 12.5 33.0652C12.5 30.295 12.5 27.5257 12.5 24.7564V24.3744C13.5726 25.8421 14.9336 26.8079 16.6898 27.1464C17.4471 27.2921 18.235 27.2965 19.0102 27.3258C19.7567 27.3543 20.505 27.332 21.2695 27.332C21.407 28.3396 21.884 29.0983 22.9135 29.2627C23.6249 29.3755 24.3858 29.3755 25.0973 29.26C26.107 29.0965 26.5858 28.3564 26.7314 27.2912C27.7375 27.2912 28.7517 27.3196 29.7624 27.2814C30.4163 27.2574 31.0775 27.1881 31.7162 27.0504C33.1015 26.7519 34.1857 25.9638 35.0553 24.8737C35.1838 24.7129 35.3024 24.545 35.4757 24.314C35.4865 24.5041 35.4991 24.6258 35.4991 24.7475C35.5 27.5319 35.5009 30.3164 35.5 33.1008Z" fill="#00963A"/>
<path d="M25.3462 25.9682C25.3462 26.3973 25.3533 26.8273 25.3453 27.2565C25.3354 27.7442 25.0883 27.9868 24.5943 27.9965C24.19 28.0054 23.7849 28.0072 23.3815 27.9965C22.9153 27.9841 22.6619 27.738 22.6566 27.276C22.6467 26.4178 22.6458 25.5586 22.6566 24.6995C22.6619 24.2659 22.9207 24.0172 23.3599 24.0047C23.7938 23.9932 24.2295 23.9914 24.6625 24.0065C25.0776 24.0207 25.3273 24.2686 25.3417 24.6799C25.3569 25.1091 25.3453 25.5391 25.3453 25.9682H25.3462Z" fill="#00963A"/>
</g>
<defs>
<clipPath id="clip0_63_1323">
<rect width="23" height="20" fill="white" transform="translate(12.5 14)"/>
</clipPath>
</defs>
</svg>
