<svg width="48" height="48" viewBox="0 0 48 48" fill="none" xmlns="http://www.w3.org/2000/svg">
<rect width="48" height="48" rx="12" fill="#D5F0FF"/>
<g clip-path="url(#clip0_474_4602)">
<path d="M33.2328 16.6697C31.8996 16.6643 30.5674 16.6688 29.2343 16.667C29.0753 16.667 28.9163 16.6537 28.7411 16.6448C28.7258 16.3498 28.7222 16.0993 28.6989 15.8514C28.6037 14.8234 27.8832 14.0558 26.8411 14.0318C24.9412 13.9883 23.0376 13.9883 21.1376 14.0345C20.1198 14.0594 19.4002 14.8279 19.3041 15.8283C19.2781 16.0895 19.2727 16.3525 19.2547 16.6688C19.0346 16.6688 18.8442 16.6679 18.6537 16.6688C17.202 16.6768 15.7476 16.6457 14.2986 16.7079C13.2709 16.7514 12.4669 17.6212 12.5163 18.6358C12.5666 19.6638 12.6322 20.7148 12.8873 21.7054C13.473 23.9825 14.8717 25.5693 17.3197 25.898C18.5989 26.0695 19.9168 25.9602 21.2176 25.9753C21.2391 25.9762 21.2607 25.9416 21.3047 25.9043C21.3047 25.4938 21.2957 25.0647 21.3065 24.6364C21.3326 23.5587 22.195 22.6996 23.281 22.6703C23.7302 22.6578 24.1794 22.6632 24.6285 22.6676C25.8233 22.6818 26.683 23.5374 26.6956 24.7244C26.701 25.1349 26.6965 25.5453 26.6965 25.9753C27.8482 25.9753 28.9549 26.0215 30.0563 25.9664C32.4943 25.843 34.1536 24.5733 34.9585 22.2811C35.3402 21.1954 35.4885 20.0698 35.4984 18.9246C35.51 17.4728 34.7096 16.6768 33.2328 16.6697ZM27.3163 16.6483H20.7145C20.4495 15.7288 20.7379 15.3388 21.6667 15.3379C23.193 15.337 24.7193 15.3379 26.2446 15.3379C27.2571 15.3379 27.4798 15.5991 27.3163 16.6483Z" fill="#36596C"/>
<path d="M35.5 33.1008C35.4991 33.7813 35.2844 33.9981 34.5837 33.9981C27.5309 33.9999 20.4781 33.9999 13.4244 33.9981C12.7021 33.9981 12.5 33.7884 12.5 33.0652C12.5 30.295 12.5 27.5257 12.5 24.7564V24.3744C13.5726 25.8421 14.9336 26.8079 16.6898 27.1464C17.4471 27.2921 18.235 27.2965 19.0102 27.3258C19.7567 27.3543 20.505 27.332 21.2695 27.332C21.407 28.3396 21.884 29.0983 22.9135 29.2627C23.6249 29.3755 24.3858 29.3755 25.0973 29.26C26.107 29.0965 26.5858 28.3564 26.7314 27.2912C27.7375 27.2912 28.7517 27.3196 29.7624 27.2814C30.4163 27.2574 31.0775 27.1881 31.7162 27.0504C33.1015 26.7519 34.1857 25.9638 35.0553 24.8737C35.1838 24.7129 35.3024 24.545 35.4757 24.314C35.4865 24.5041 35.4991 24.6258 35.4991 24.7475C35.5 27.5319 35.5009 30.3164 35.5 33.1008Z" fill="#36596C"/>
<path d="M25.3463 25.9682C25.3463 26.3973 25.3535 26.8273 25.3454 27.2565C25.3355 27.7442 25.0885 27.9868 24.5944 27.9965C24.1901 28.0054 23.785 28.0072 23.3816 27.9965C22.9154 27.9841 22.6621 27.738 22.6567 27.276C22.6468 26.4178 22.6459 25.5586 22.6567 24.6995C22.6621 24.2659 22.9208 24.0172 23.3601 24.0047C23.794 23.9932 24.2297 23.9914 24.6627 24.0065C25.0777 24.0207 25.3274 24.2686 25.3418 24.6799C25.3571 25.1091 25.3454 25.5391 25.3454 25.9682H25.3463Z" fill="#36596C"/>
</g>
<defs>
<clipPath id="clip0_474_4602">
<rect width="23" height="20" fill="white" transform="translate(12.5 14)"/>
</clipPath>
</defs>
</svg>
