<svg width="72" height="72" viewBox="0 0 72 72" fill="none" xmlns="http://www.w3.org/2000/svg">
<rect width="72" height="72" rx="16" fill="#D5F0FF"/>
<g clip-path="url(#clip0_474_4557)">
<path d="M38.998 38.2907C42.1243 38.3072 45.249 38.3039 48.3736 38.2924C50.5768 38.2842 51.9738 36.8969 51.9902 34.71C52.0017 32.8735 51.9919 31.037 51.9919 29.2006C51.9919 27.3641 52.0001 25.4717 51.9902 23.6072C51.9787 21.3676 50.6459 20.0198 48.4263 20.0133C45.2737 20.0034 42.121 20.0034 38.9684 20.0133C36.8442 20.0215 35.4357 21.3412 35.4094 23.4772C35.3633 27.2588 35.36 31.0436 35.4127 34.8268C35.4407 36.9282 36.8952 38.2809 38.998 38.2907Z" fill="#36596C"/>
<path d="M33.2079 37.2422C33.1963 35.1638 31.7862 33.7322 29.6998 33.7124C27.6167 33.6927 25.532 33.6861 23.4489 33.7141C21.453 33.7421 20.0281 35.1605 20.0182 37.1451C19.9985 40.9546 19.9985 44.7675 20.0182 48.5786C20.0281 50.5978 21.4135 51.9702 23.4325 51.9866C25.5419 52.0047 27.6546 52.0047 29.764 51.9866C31.8208 51.9702 33.1947 50.5731 33.2062 48.5112C33.2177 46.6187 33.2095 44.728 33.2095 42.8355C33.2095 40.9431 33.2161 39.1067 33.2079 37.2422Z" fill="#36596C"/>
<path d="M51.9887 43.953C51.9657 41.868 50.5556 40.466 48.4577 40.4578C45.305 40.443 42.1524 40.4446 38.9982 40.4578C36.9299 40.466 35.505 41.7775 35.4161 43.8378C35.347 45.4258 35.3519 47.0203 35.4128 48.6083C35.4934 50.6982 36.874 51.9768 38.9669 51.9917C40.558 52.0015 42.1475 51.9933 43.7386 51.9933C45.3297 51.9933 46.9192 52.0048 48.5087 51.99C50.5901 51.9736 51.9624 50.6225 51.9887 48.5606C52.0068 47.0253 52.0052 45.49 51.9887 43.9546V43.953Z" fill="#36596C"/>
<path d="M29.9171 20.0213C27.7237 19.9933 25.5304 19.9949 23.3371 20.018C21.4218 20.0394 20.0495 21.4266 20.0199 23.3552C19.9952 24.9449 19.9952 26.5361 20.0166 28.1258C20.0446 30.1103 21.4613 31.5107 23.4605 31.5453C23.8554 31.5519 24.2503 31.5535 24.6468 31.5535C25.2935 31.5535 25.9401 31.5486 26.5868 31.5486C27.5378 31.5469 28.4905 31.5683 29.4416 31.5502C29.5864 31.5486 29.7312 31.5453 29.8759 31.5403C31.7682 31.4828 33.1849 30.0412 33.2046 28.1685C33.2211 26.5509 33.2244 24.9333 33.2046 23.3157C33.1799 21.4562 31.7813 20.0443 29.9187 20.0213H29.9171Z" fill="#36596C"/>
</g>
<defs>
<clipPath id="clip0_474_4557">
<rect width="32" height="32" fill="white" transform="translate(20 20)"/>
</clipPath>
</defs>
</svg>
