<svg width="72" height="72" viewBox="0 0 72 72" fill="none" xmlns="http://www.w3.org/2000/svg">
<rect width="72" height="72" rx="16" fill="#E2F5EA"/>
<g clip-path="url(#clip0_63_797)">
<path d="M38.998 38.2907C42.1242 38.3072 45.2489 38.3039 48.3735 38.2924C50.5767 38.2842 51.9737 36.8969 51.9901 34.71C52.0017 32.8735 51.9918 31.037 51.9918 29.2006C51.9918 27.3641 52 25.4717 51.9901 23.6072C51.9786 21.3676 50.6458 20.0198 48.4262 20.0133C45.2736 20.0034 42.1209 20.0034 38.9683 20.0133C36.8441 20.0215 35.4356 21.3412 35.4093 23.4772C35.3632 27.2588 35.3599 31.0436 35.4126 34.8268C35.4406 36.9282 36.8951 38.2809 38.998 38.2907Z" fill="#00963A"/>
<path d="M33.2077 37.2422C33.1962 35.1638 31.7861 33.7322 29.6997 33.7124C27.6166 33.6927 25.5319 33.6861 23.4488 33.7141C21.4529 33.7421 20.028 35.1605 20.0181 37.1451C19.9984 40.9546 19.9984 44.7675 20.0181 48.5786C20.028 50.5978 21.4134 51.9702 23.4323 51.9866C25.5418 52.0047 27.6545 52.0047 29.7639 51.9866C31.8207 51.9702 33.1946 50.5731 33.2061 48.5112C33.2176 46.6187 33.2094 44.728 33.2094 42.8355C33.2094 40.9431 33.216 39.1067 33.2077 37.2422Z" fill="#00963A"/>
<path d="M51.9885 43.953C51.9654 41.868 50.5553 40.466 48.4574 40.4578C45.3048 40.443 42.1522 40.4446 38.9979 40.4578C36.9297 40.466 35.5047 41.7775 35.4159 43.8378C35.3468 45.4258 35.3517 47.0203 35.4126 48.6083C35.4932 50.6982 36.8737 51.9768 38.9667 51.9917C40.5578 52.0015 42.1473 51.9933 43.7384 51.9933C45.3295 51.9933 46.919 52.0048 48.5084 51.99C50.5899 51.9736 51.9621 50.6225 51.9885 48.5606C52.0066 47.0253 52.0049 45.49 51.9885 43.9546V43.953Z" fill="#00963A"/>
<path d="M29.9169 20.0213C27.7236 19.9933 25.5302 19.9949 23.3369 20.018C21.4216 20.0394 20.0494 21.4266 20.0197 23.3552C19.9951 24.9449 19.9951 26.5361 20.0164 28.1258C20.0444 30.1103 21.4611 31.5107 23.4603 31.5453C23.8552 31.5519 24.2501 31.5535 24.6466 31.5535C25.2933 31.5535 25.9399 31.5486 26.5866 31.5486C27.5376 31.5469 28.4903 31.5683 29.4414 31.5502C29.5862 31.5486 29.731 31.5453 29.8758 31.5403C31.768 31.4828 33.1847 30.0412 33.2044 28.1685C33.2209 26.5509 33.2242 24.9333 33.2044 23.3157C33.1798 21.4562 31.7812 20.0443 29.9185 20.0213H29.9169Z" fill="#00963A"/>
</g>
<defs>
<clipPath id="clip0_63_797">
<rect width="32" height="32" fill="white" transform="translate(20 20)"/>
</clipPath>
</defs>
</svg>
