<svg width="72" height="72" viewBox="0 0 72 72" fill="none" xmlns="http://www.w3.org/2000/svg">
<rect width="72" height="72" rx="16" fill="#DBEAFE"/>
<g clip-path="url(#clip0_63_886)">
<path d="M50.4511 24.2717C48.3644 24.2632 46.2792 24.2703 44.1926 24.2675C43.9437 24.2675 43.6948 24.2462 43.4206 24.2319C43.3967 23.76 43.3911 23.3591 43.3545 22.9625C43.2055 21.3178 42.0778 20.0896 40.4468 20.0512C37.4729 19.9816 34.4934 19.9816 31.5195 20.0555C29.9264 20.0953 28.8002 21.3249 28.6497 22.9256C28.6089 23.3435 28.6005 23.7643 28.5724 24.2703C28.2279 24.2703 27.9298 24.2689 27.6317 24.2703C25.3595 24.2831 23.083 24.2334 20.815 24.3329C19.2064 24.4025 17.948 25.7942 18.0253 27.4176C18.1041 29.0623 18.2067 30.744 18.606 32.329C19.5228 35.9723 21.7121 38.5112 25.5437 39.0371C27.5459 39.3115 29.6087 39.1367 31.6447 39.1608C31.6784 39.1622 31.7122 39.1068 31.7811 39.0471C31.7811 38.3904 31.767 37.7038 31.7839 37.0186C31.8246 35.2943 33.1745 33.9197 34.8744 33.8727C35.5775 33.8528 36.2805 33.8614 36.9836 33.8685C38.8537 33.8912 40.1993 35.2602 40.219 37.1593C40.2274 37.8161 40.2204 38.4728 40.2204 39.1608C42.023 39.1608 43.7553 39.2347 45.4791 39.1466C49.2953 38.949 51.8923 36.9177 53.1521 33.2501C53.7497 31.513 53.9817 29.7119 53.9972 27.8796C54.0155 25.5568 52.7627 24.2831 50.4511 24.2717ZM41.1906 24.2376H30.8573C30.4425 22.7663 30.8938 22.1423 32.3477 22.1409C34.7366 22.1395 37.1256 22.1409 39.5131 22.1409C41.0978 22.1409 41.4465 22.5588 41.1906 24.2376Z" fill="#155DFC"/>
<path d="M54 50.5613C53.9986 51.6502 53.6625 51.9971 52.5658 51.9971C41.5266 51.9999 30.4874 51.9999 19.4469 51.9971C18.3164 51.9971 18 51.6616 18 50.5045C18 46.0722 18 41.6413 18 37.2104V36.5991C19.6789 38.9475 21.8091 40.4927 24.558 41.0343C25.7433 41.2674 26.9764 41.2745 28.1899 41.3214C29.3584 41.3669 30.5296 41.3314 31.7262 41.3314C31.9413 42.9434 32.688 44.1574 34.2993 44.4203C35.413 44.6009 36.6039 44.6009 37.7175 44.4161C39.298 44.1545 40.0474 42.9704 40.2752 41.266C41.85 41.266 43.4375 41.3115 45.0193 41.2503C46.043 41.212 47.0778 41.1011 48.0776 40.8807C50.2458 40.4031 51.9429 39.1422 53.304 37.398C53.5051 37.1407 53.6907 36.872 53.962 36.5024C53.9789 36.8066 53.9986 37.0014 53.9986 37.1961C54 41.6512 54.0014 46.1063 54 50.5613Z" fill="#155DFC"/>
<path d="M38.107 39.1493C38.107 39.8359 38.1183 40.5239 38.1056 41.2105C38.0902 41.9909 37.7035 42.379 36.9301 42.3947C36.2974 42.4089 35.6632 42.4117 35.0319 42.3947C34.3022 42.3748 33.9056 41.981 33.8972 41.2418C33.8817 39.8686 33.8803 38.494 33.8972 37.1194C33.9056 36.4257 34.3106 36.0276 34.9982 36.0077C35.6773 35.9893 36.3593 35.9864 37.037 36.0106C37.6866 36.0333 38.0775 36.4299 38.1 37.0881C38.1239 37.7747 38.1056 38.4627 38.1056 39.1493H38.107Z" fill="#155DFC"/>
</g>
<defs>
<clipPath id="clip0_63_886">
<rect width="36" height="32" fill="white" transform="translate(18 20)"/>
</clipPath>
</defs>
</svg>
