<svg width="27" height="24" viewBox="0 0 27 24" fill="none" xmlns="http://www.w3.org/2000/svg">
<g clip-path="url(#clip0_63_1207)">
<path d="M24.3383 3.20369C22.7733 3.19729 21.2094 3.20262 19.6445 3.20049C19.4578 3.20049 19.2711 3.1845 19.0655 3.17384C19.0476 2.81988 19.0434 2.51922 19.0159 2.22177C18.9041 0.988237 18.0584 0.0670876 16.8351 0.0383017C14.6047 -0.0139395 12.3701 -0.0139395 10.1397 0.0415001C8.94485 0.0713522 8.10014 0.993568 7.9873 2.19405C7.95672 2.50749 7.95039 2.82307 7.9293 3.20262C7.67093 3.20262 7.44736 3.20156 7.2238 3.20262C5.51962 3.21222 3.81228 3.1749 2.11127 3.24953C0.90485 3.30177 -0.0389848 4.34553 0.0190162 5.56307C0.0780718 6.7966 0.155055 8.05785 0.454551 9.2466C1.14213 11.9791 2.78408 13.8833 5.65777 14.2777C7.15947 14.4835 8.70651 14.3524 10.2335 14.3705C10.2588 14.3716 10.2841 14.33 10.3358 14.2852C10.3358 13.7926 10.3253 13.2777 10.3379 12.7638C10.3685 11.4706 11.3809 10.4396 12.6559 10.4044C13.1831 10.3895 13.7104 10.3959 14.2377 10.4012C15.6403 10.4183 16.6495 11.445 16.6643 12.8694C16.6706 13.3619 16.6653 13.8545 16.6653 14.3705C18.0173 14.3705 19.3165 14.4259 20.6094 14.3598C23.4715 14.2116 25.4192 12.6881 26.3641 9.93746C26.8123 8.63463 26.9863 7.28383 26.9979 5.90956C27.0116 4.16748 26.072 3.21222 24.3383 3.20369ZM17.393 3.1781H9.64297C9.33187 2.07464 9.67039 1.6066 10.7608 1.60554C12.5525 1.60447 14.3442 1.60554 16.1349 1.60554C17.3234 1.60554 17.5849 1.91898 17.393 3.1781Z" fill="#155DFC"/>
<path d="M27 22.9211C26.9989 23.7378 26.7469 23.9979 25.9243 23.9979C17.645 24.0001 9.36558 24.0001 1.08515 23.9979C0.237277 23.9979 0 23.7463 0 22.8785C0 19.5542 0 16.2311 0 12.9079V12.4495C1.25915 14.2107 2.85681 15.3696 4.91849 15.7758C5.80748 15.9507 6.73234 15.956 7.64242 15.9912C8.51877 16.0253 9.39722 15.9986 10.2947 15.9986C10.456 17.2077 11.016 18.1181 12.2245 18.3154C13.0597 18.4508 13.9529 18.4508 14.7881 18.3122C15.9735 18.116 16.5356 17.2279 16.7064 15.9496C17.8875 15.9496 19.0781 15.9837 20.2645 15.9379C21.0322 15.9091 21.8084 15.8259 22.5582 15.6607C24.1843 15.3025 25.4572 14.3568 26.478 13.0486C26.6288 12.8557 26.768 12.6542 26.9715 12.377C26.9842 12.6051 26.9989 12.7512 26.9989 12.8972C27 16.2385 27.0011 19.5798 27 22.9211Z" fill="#155DFC"/>
<path d="M15.0803 14.3622C15.0803 14.8772 15.0887 15.3932 15.0792 15.9081C15.0676 16.4935 14.7776 16.7845 14.1976 16.7962C13.7231 16.8069 13.2475 16.809 12.774 16.7962C12.2266 16.7813 11.9292 16.486 11.9229 15.9316C11.9113 14.9017 11.9103 13.8707 11.9229 12.8398C11.9292 12.3195 12.233 12.021 12.7486 12.006C13.258 11.9922 13.7695 11.9901 14.2778 12.0082C14.765 12.0252 15.0581 12.3227 15.075 12.8163C15.0929 13.3313 15.0792 13.8473 15.0792 14.3622H15.0803Z" fill="#155DFC"/>
</g>
<defs>
<clipPath id="clip0_63_1207">
<rect width="27" height="24" fill="white"/>
</clipPath>
</defs>
</svg>
