<svg width="72" height="72" viewBox="0 0 72 72" fill="none" xmlns="http://www.w3.org/2000/svg">
<rect width="72" height="72" rx="16" fill="#D5F0FF"/>
<g clip-path="url(#clip0_474_4550)">
<path d="M51.9998 48.3596C52.023 50.9258 49.9991 53.0587 47.322 52.9987C43.1652 52.9074 39.0029 52.9115 34.8447 52.9987C32.3339 53.0519 30.0932 51.197 30.1437 48.305C30.1792 46.2621 30.1505 44.2165 30.1505 42.1722V41.3599C27.2225 41.3599 24.4062 41.3626 21.59 41.3572C20.7608 41.3558 20.158 40.9061 20.0312 40.2206C19.8539 39.2611 20.4471 38.4979 21.4386 38.4788C22.8242 38.4529 24.2112 38.4693 25.5982 38.4693H41.1222C40.874 38.7459 40.7376 38.9122 40.5862 39.0648C39.2538 40.4004 37.9146 41.7279 36.5876 43.0676C35.8416 43.8199 35.7884 44.6485 36.4199 45.2836C37.0527 45.9187 37.8914 45.8737 38.6388 45.1296C40.9599 42.8236 43.2743 40.5108 45.5818 38.1912C46.3824 37.3885 46.3865 36.6158 45.5941 35.8185C43.2866 33.4989 40.9708 31.1875 38.651 28.8802C37.8969 28.1306 37.069 28.0761 36.4321 28.7044C35.7898 29.3367 35.8334 30.1708 36.5753 30.9204C37.8859 32.2437 39.2088 33.5562 40.5249 34.874C40.6954 35.0444 40.8549 35.2257 41.1018 35.4901C40.7963 35.5078 40.604 35.5282 40.4117 35.5296C37.5941 35.5309 34.7751 35.5337 31.9562 35.5296C30.6592 35.5269 30.1532 35.0158 30.1519 33.7047C30.1478 31.024 30.1751 28.3432 30.1437 25.6638C30.1096 22.7868 32.3421 20.9538 34.8051 21.0001C38.9865 21.0819 43.1706 21.0873 47.352 21.0001C49.9814 20.9442 52.0257 23.0539 51.9998 25.6665C51.9262 33.2304 51.9289 40.7943 51.9998 48.3582V48.3596Z" fill="#36596C"/>
</g>
<defs>
<clipPath id="clip0_474_4550">
<rect width="32" height="32" fill="white" transform="translate(20 21)"/>
</clipPath>
</defs>
</svg>
