<svg width="72" height="72" viewBox="0 0 72 72" fill="none" xmlns="http://www.w3.org/2000/svg">
<rect width="72" height="72" rx="16" fill="#E2F5EA"/>
<g clip-path="url(#clip0_63_743)">
<path d="M52 48.3596C52.0232 50.9258 49.9993 53.0587 47.3222 52.9987C43.1654 52.9074 39.0031 52.9115 34.8449 52.9987C32.3341 53.0519 30.0934 51.197 30.1439 48.305C30.1793 46.2621 30.1507 44.2165 30.1507 42.1722V41.3599C27.2226 41.3599 24.4064 41.3626 21.5902 41.3572C20.761 41.3558 20.1582 40.9061 20.0314 40.2206C19.8541 39.2611 20.4473 38.4979 21.4388 38.4788C22.8244 38.4529 24.2114 38.4693 25.5984 38.4693H41.1224C40.8742 38.7459 40.7378 38.9122 40.5864 39.0648C39.254 40.4004 37.9148 41.7279 36.5878 43.0676C35.8418 43.8199 35.7886 44.6485 36.42 45.2836C37.0528 45.9187 37.8916 45.8737 38.6389 45.1296C40.9601 42.8236 43.2745 40.5108 45.582 38.1912C46.3825 37.3885 46.3866 36.6158 45.5943 35.8185C43.2867 33.4989 40.971 31.1875 38.6512 28.8802C37.897 28.1306 37.0692 28.0761 36.4323 28.7044C35.79 29.3367 35.8336 30.1708 36.5755 30.9204C37.8861 32.2437 39.209 33.5562 40.5251 34.874C40.6955 35.0444 40.8551 35.2257 41.1019 35.4901C40.7965 35.5078 40.6042 35.5282 40.4119 35.5296C37.5943 35.5309 34.7753 35.5337 31.9564 35.5296C30.6594 35.5269 30.1534 35.0158 30.1521 33.7047C30.148 31.024 30.1752 28.3432 30.1439 25.6638C30.1098 22.7868 32.3423 20.9538 34.8053 21.0001C38.9867 21.0819 43.1708 21.0873 47.3522 21.0001C49.9816 20.9442 52.0259 23.0539 52 25.6665C51.9264 33.2304 51.9291 40.7943 52 48.3582V48.3596Z" fill="#00963A"/>
</g>
<defs>
<clipPath id="clip0_63_743">
<rect width="32" height="32" fill="white" transform="translate(20 21)"/>
</clipPath>
</defs>
</svg>
