<svg width="72" height="72" viewBox="0 0 72 72" fill="none" xmlns="http://www.w3.org/2000/svg">
<rect width="72" height="72" rx="16" fill="#CBFBF1"/>
<g clip-path="url(#clip0_63_871)">
<path d="M46.015 47.3373C42.6344 47.3416 39.2539 47.3387 35.8734 47.3387C32.4929 47.3387 29.2088 47.3416 25.8772 47.3373C24.5316 47.3358 24.1388 46.6583 24.7158 45.4208C25.4023 43.9453 26.3205 42.5134 26.6529 40.9567C26.9882 39.3855 26.7249 37.6867 26.7278 36.0429C26.7306 33.3009 27.6546 30.9463 29.6434 29.0472C29.9212 28.7817 30.2104 28.5191 30.5314 28.3131C31.6136 27.6225 32.6397 27.006 33.2254 25.6669C33.7924 24.3699 35.1884 24.026 36.57 24.277C37.8752 24.5135 38.7071 25.3593 39.1762 26.6128C39.2928 26.9247 39.5633 27.2584 39.8526 27.4107C43.2389 29.1952 44.973 32.0068 45.1083 35.8413C45.1155 36.0589 45.1083 36.2765 45.1083 36.4941C45.1112 38.0885 44.8507 39.7439 45.1918 41.2614C45.5242 42.7484 46.4726 44.0948 47.1475 45.5035C47.693 46.6395 47.267 47.3344 46.0135 47.3373H46.015Z" fill="#009689"/>
<path d="M24.2711 22.0035C21.3209 25.1198 19.781 28.8295 19.6587 33.1369C19.6328 34.0335 19.2399 34.5499 18.565 34.5412C17.89 34.5325 17.5015 34.0102 17.5 33.1108C17.4986 32.9903 17.5 32.8699 17.5 32.6015C17.749 28.0127 19.44 23.9026 22.7341 20.4889C23.2652 19.9362 23.9272 19.8665 24.3834 20.2829C24.8597 20.7196 24.8223 21.4203 24.2711 22.0035Z" fill="#009689"/>
<path d="M54.5 32.7885C54.3504 33.984 54.0093 34.5324 53.271 34.5411C52.5385 34.5498 52.2248 34.0246 52.1715 32.8451C51.9844 28.735 50.4993 25.169 47.7145 22.1557C47.5375 21.9642 47.3231 21.7756 47.2252 21.542C47.0094 21.0285 47.0799 20.525 47.5749 20.2044C48.0772 19.878 48.5751 19.9462 49.0054 20.3829C51.0835 22.4879 52.6263 24.9412 53.448 27.7906C53.9186 29.4213 54.1575 31.1201 54.5 32.7885Z" fill="#009689"/>
<path d="M49.7076 33.5662C49.5925 34.1582 49.227 34.5078 48.6254 34.5339C48.0699 34.5586 47.5907 34.0885 47.5763 33.4734C47.5043 30.273 46.4048 27.5107 44.2001 25.1923C43.6935 24.6584 43.7165 24.0157 44.1742 23.5863C44.6505 23.1423 45.2866 23.1946 45.8249 23.7618C48.27 26.3442 49.5465 29.4315 49.7134 32.8699C49.7134 33.1818 49.7436 33.3805 49.7076 33.5662Z" fill="#009689"/>
<path d="M27.5466 25.297C25.4455 27.5283 24.3776 30.1847 24.2711 33.2488C24.2438 34.0409 23.848 34.5283 23.2191 34.5414C22.5658 34.5545 22.1211 34.022 22.1125 33.2154C22.111 33.1443 22.1125 33.0732 22.1125 33.0529C22.3024 29.423 23.5588 26.3778 25.9549 23.823C26.532 23.2079 27.1595 23.1266 27.6545 23.5822C28.1453 24.0348 28.128 24.6804 27.5466 25.297Z" fill="#009689"/>
<path d="M40.5621 49.5352C39.5835 50.9642 38.3026 51.7476 36.7124 51.9464C34.5062 52.222 32.7015 51.4429 31.2192 49.5352H40.5621Z" fill="#009689"/>
</g>
<defs>
<clipPath id="clip0_63_871">
<rect width="37" height="32" fill="white" transform="translate(17.5 20)"/>
</clipPath>
</defs>
</svg>
