<svg width="72" height="72" viewBox="0 0 72 72" fill="none" xmlns="http://www.w3.org/2000/svg">
<rect width="72" height="72" rx="16" fill="#F3E8FF"/>
<g clip-path="url(#clip0_63_918)">
<path d="M31.9688 33.2163C31.9561 33.9449 31.5062 34.356 30.7538 34.3648C29.4842 34.3785 28.2146 34.3685 26.945 34.3685C25.6754 34.3685 24.5316 34.3748 23.3255 34.3673C22.427 34.361 22.0114 33.9486 22.0064 33.0651C22.0013 31.858 21.9949 30.6508 22.0102 29.4449C22.028 27.9928 23.1451 26.8831 24.6244 26.8656C26.2104 26.8456 27.799 26.8456 29.3851 26.8656C30.7907 26.8831 31.8913 27.8978 31.951 29.2837C32.0082 30.5921 31.9891 31.9042 31.9688 33.2151V33.2163Z" fill="#9810FA"/>
<path d="M49.9949 50.7292C49.9898 51.5803 49.5729 51.9914 48.7113 51.9952C47.462 52.0027 46.214 51.9977 44.9647 51.9977C43.7155 51.9977 42.5945 52.0002 41.4088 51.9964C40.4455 51.9952 40.0363 51.6215 40.0261 50.7005C40.0121 49.5358 40.0045 48.3699 40.0274 47.2052C40.0604 45.5407 41.1457 44.501 42.836 44.4935C44.3166 44.4872 45.7984 44.4847 47.279 44.4935C48.8727 44.5047 49.9809 45.5994 49.9949 47.1702C50.0038 48.3561 50.0025 49.5421 49.9949 50.728V50.7292Z" fill="#9810FA"/>
<path d="M48.4267 41.063C48.3822 42.925 46.8279 44.4183 44.947 44.4071C43.0661 44.3958 41.5232 42.86 41.5321 41.0092C41.5398 39.1522 43.0864 37.6302 44.9686 37.6289C46.866 37.6264 48.4699 39.2197 48.4267 41.063Z" fill="#9810FA"/>
<path d="M30.4704 23.3676C30.4819 25.2109 28.9276 26.7667 27.0619 26.7817C25.1734 26.7954 23.5645 25.2221 23.5746 23.3714C23.5848 21.5519 25.1226 20.021 26.9628 19.9998C28.8933 19.976 30.4577 21.4781 30.4704 23.3676Z" fill="#9810FA"/>
<path d="M37.1388 44.8646C37.1133 45.497 36.619 45.9281 35.8971 45.9381C35.7078 45.9406 35.5171 45.9169 35.3265 45.9044C30.8111 45.5732 27.156 42.5165 26.138 38.2152C25.9995 37.6304 26.0109 37.0855 26.6133 36.7369C27.3555 36.3082 28.1371 36.7144 28.3481 37.6591C28.601 38.7963 29.0839 39.8235 29.8172 40.732C31.3906 42.6777 33.4723 43.6212 35.9772 43.7275C36.6914 43.7574 37.1655 44.2423 37.1388 44.8646Z" fill="#9810FA"/>
<path d="M45.4515 35.2233C44.7207 35.7132 43.8756 35.3083 43.657 34.3436C43.4003 33.2064 42.9212 32.1779 42.1891 31.2694C40.6348 29.3399 38.5773 28.389 36.0953 28.274C35.3226 28.2377 34.8409 27.7829 34.8625 27.1393C34.8841 26.4845 35.395 26.0558 36.1588 26.0596C36.3291 26.0608 36.4981 26.0796 36.6672 26.0896C41.2017 26.432 44.83 29.4624 45.862 33.7725C45.9967 34.3311 45.9954 34.8597 45.4515 35.2233Z" fill="#9810FA"/>
</g>
<defs>
<clipPath id="clip0_63_918">
<rect width="28" height="32" fill="white" transform="translate(22 20)"/>
</clipPath>
</defs>
</svg>
