<svg width="20" height="24" viewBox="0 0 20 24" fill="none" xmlns="http://www.w3.org/2000/svg">
<g clip-path="url(#clip0_474_4583)">
<path d="M19.3875 17.7162C16.6488 19.4949 13.919 21.2866 11.1743 23.0554C9.71406 23.9948 8.10758 24.1288 6.427 23.9067C4.47274 23.6486 2.51058 23.4385 0.549411 23.2325C0.118645 23.1874 -0.00287868 22.9954 8.53117e-05 22.5902C0.0119413 20.9245 0.0139173 19.2578 8.53117e-05 17.5921C-0.00386667 17.1499 0.128525 16.9648 0.597823 16.9779C1.66782 17.0089 2.54319 16.6027 3.18044 15.6983C3.92144 14.6469 4.94204 14.1327 6.20964 14.3257C7.69361 14.5508 9.16078 14.4488 10.6349 14.2887C11.3018 14.2167 11.8896 14.3468 12.2344 15.001C12.5545 15.6093 12.4301 16.4706 11.9361 17.0029C11.1812 17.8152 10.1784 18.0633 9.13905 18.2044C8.58873 18.2794 8.03546 18.3234 7.44661 18.3854C7.84576 19.4239 8.45041 19.731 9.34554 19.3128C10.2822 18.8756 11.1802 18.3504 12.0872 17.8492C13.7154 16.9498 15.318 15.9774 17.1537 15.5753C17.7475 15.4452 18.3916 15.4682 19.0012 15.5323C19.4932 15.5843 19.8865 15.8984 19.9793 16.4506C20.0732 17.0059 19.8509 17.416 19.3875 17.7162Z" fill="#36596C"/>
<path d="M11.4343 4.35687e-05C7.76586 -0.0129618 4.85226 2.88725 4.83843 6.56678C4.8246 10.2133 7.74412 13.1915 11.3375 13.1955C14.918 13.1995 17.8819 10.2083 17.8819 6.58979C17.881 3.0043 14.9545 0.013049 11.4343 4.35687e-05ZM15.0444 6.26665L13.7363 7.39813C13.5723 7.54018 13.5012 7.76228 13.5516 7.97437L13.9527 9.66907C14.0673 10.1533 13.5466 10.5364 13.1267 10.2763L11.6596 9.36595C11.4758 9.2529 11.2446 9.2529 11.0608 9.36595L9.59365 10.2763C9.17375 10.5364 8.65308 10.1533 8.76769 9.66907L9.16881 7.97437C9.2192 7.76228 9.14807 7.54018 8.98406 7.39813L7.67595 6.26665C7.3015 5.94252 7.50009 5.32226 7.99112 5.28324L9.70628 5.14619C9.92167 5.12918 10.1084 4.99112 10.1904 4.79004L10.8494 3.18037C11.0381 2.72018 11.6823 2.72018 11.871 3.18037L12.529 4.79004C12.612 4.99112 12.7987 5.12918 13.0141 5.14619L14.7293 5.28324C15.2193 5.32226 15.4189 5.94252 15.0444 6.26665Z" fill="#36596C"/>
</g>
<defs>
<clipPath id="clip0_474_4583">
<rect width="20" height="24" fill="white"/>
</clipPath>
</defs>
</svg>
