<svg width="48" height="48" viewBox="0 0 48 48" fill="none" xmlns="http://www.w3.org/2000/svg">
<rect width="48" height="48" rx="12" fill="#DBEAFE"/>
<g clip-path="url(#clip0_80_1557)">
<path d="M33.4991 25.4532C33.4779 26.1227 32.9594 26.6234 32.2491 26.629C31.0498 26.6384 29.8506 26.6318 28.6513 26.6318H28.1061C27.7251 29.7655 27.3478 32.8728 26.9668 35.9999H21.0323C20.6541 32.8888 20.2768 29.7842 19.893 26.6318H19.0046C17.928 26.6318 16.8524 26.6375 15.7758 26.63C15.0378 26.6243 14.5083 26.118 14.5 25.4326C14.4917 24.7565 15.024 24.2333 15.7518 24.2033C15.8598 24.1996 15.9668 24.2024 16.0747 24.2024H31.9437C32.0517 24.2024 32.1596 24.1986 32.2666 24.2043C32.988 24.239 33.5203 24.78 33.4991 25.4532Z" fill="#155DFC"/>
<path d="M21.9751 21.3632C22.1826 20.8634 22.0627 20.2043 22.0037 19.6239C21.9908 19.501 21.6116 19.3238 21.4151 19.3398C21.2481 19.3538 20.9705 19.6117 20.9695 19.7626C20.9649 20.3787 20.7823 20.991 21.1494 21.6201C21.3422 21.9502 21.1836 22.4921 21.1836 22.9675H18.8801C18.9677 22.2033 19.0517 21.4523 19.1393 20.7012C19.1873 20.283 19.238 19.8648 19.2915 19.4476C19.4649 18.1077 20.9105 17.11 22.0932 17.546C22.3994 17.6586 22.6697 17.892 22.9336 18.0993C23.8432 18.8137 24.4059 18.8466 25.2564 18.0514C25.869 17.4795 26.4815 17.2648 27.2574 17.6098C28.0996 17.983 28.5996 18.6206 28.7159 19.5526C28.8561 20.6787 28.9862 21.8067 29.1264 22.9806H21.7924C21.8708 22.4331 21.738 21.9342 21.9751 21.3632Z" fill="#155DFC"/>
<path d="M26.4207 14.4191C26.4188 15.7693 25.3792 16.8195 24.0507 16.8139C22.7269 16.8073 21.691 15.7478 21.6928 14.4013C21.6956 13.0745 22.762 11.9972 24.0692 12C25.3865 12.0028 26.4234 13.0699 26.4207 14.4191Z" fill="#155DFC"/>
</g>
<defs>
<clipPath id="clip0_80_1557">
<rect width="19" height="24" fill="white" transform="translate(14.5 12)"/>
</clipPath>
</defs>
</svg>
