<svg width="72" height="72" viewBox="0 0 72 72" fill="none" xmlns="http://www.w3.org/2000/svg">
<rect width="72" height="72" rx="16" fill="#DBEAFE"/>
<g clip-path="url(#clip0_63_892)">
<path d="M38.2962 38.9449C37.4051 39.1044 36.4694 39.0081 35.5544 39.0322C35.3625 39.0382 35.1706 39.0638 34.885 39.0863V46.2172H28.8777C28.8777 45.1265 28.9238 44.1035 28.8643 43.088C28.7944 41.868 27.936 40.8676 26.786 40.5261C24.8922 39.9649 23.0117 41.3159 22.921 43.3333C22.8793 44.257 22.9136 45.1822 22.9136 46.163H17V25.8191H22.915C22.915 24.8187 22.8883 23.8769 22.921 22.9367C22.9671 21.6128 23.8032 20.5447 25.0424 20.155C26.2609 19.7714 27.6518 20.1656 28.3154 21.2773C28.6769 21.8836 28.8108 22.6689 28.903 23.3925C28.9997 24.1522 28.9238 24.9345 28.9238 25.774H34.8656V32.986C35.8654 32.986 36.7758 32.968 37.6833 32.9905C39.2261 33.0281 40.4668 34.173 40.6051 35.6533C40.7509 37.2269 39.8048 38.6726 38.2962 38.9449Z" fill="#155DFC"/>
<path d="M55 46.193H49.085C49.085 47.1935 49.1117 48.1352 49.079 49.0755C49.0329 50.3993 48.1968 51.4674 46.9576 51.8571C45.7392 52.2407 44.3482 51.8466 43.6847 50.7333C43.3231 50.127 43.1893 49.3417 43.097 48.6181C43.0003 47.8599 43.0762 47.0776 43.0762 46.2171H37.1701V41.3414C40.9131 40.9186 42.8783 39.005 42.8471 35.8654C42.8173 32.9468 40.7405 31.0257 37.179 30.6752V25.7889H43.1104C43.1104 24.7524 43.0792 23.779 43.1178 22.8087C43.1655 21.6202 43.7992 20.7703 44.8406 20.2934C45.8805 19.8165 46.9263 19.9218 47.8636 20.6108C48.6788 21.211 49.0671 22.0565 49.085 23.0675C49.1013 23.94 49.0879 24.8141 49.0879 25.7784H55V46.193Z" fill="#155DFC"/>
</g>
<defs>
<clipPath id="clip0_63_892">
<rect width="38" height="32" fill="white" transform="translate(17 20)"/>
</clipPath>
</defs>
</svg>
