<svg width="72" height="72" viewBox="0 0 72 72" fill="none" xmlns="http://www.w3.org/2000/svg">
<rect width="72" height="72" rx="16" fill="#DBEAFE"/>
<g clip-path="url(#clip0_63_898)">
<path d="M35.985 20C31.892 20.0012 28.5119 23.38 28.5169 27.4645C28.5219 31.5639 31.8858 34.9139 35.9938 34.9102C40.103 34.9052 43.4656 31.5489 43.4606 27.4557C43.4556 23.365 40.0793 19.9988 35.985 20ZM39.2614 25.9643C38.265 27.3445 37.2449 28.7073 36.206 30.0563C35.8602 30.5047 35.2546 30.5247 34.8288 30.1225C34.1495 29.4817 33.4903 28.8172 32.8447 28.1415C32.4214 27.6993 32.4377 27.2171 32.8347 26.8187C33.248 26.4052 33.69 26.3928 34.1483 26.8274C34.5528 27.2096 34.9224 27.6281 35.3545 28.0803C36.1898 26.9698 36.9365 25.9731 37.6882 24.9801C38.0116 24.5554 38.4036 24.3455 38.9256 24.6453C39.4425 24.9438 39.6123 25.4809 39.2614 25.9643Z" fill="#155DFC"/>
<path d="M40.9546 51.649C40.9546 51.7302 40.9396 51.8114 40.9234 51.9662H31.0217V51.273C31.0217 47.0237 31.0205 42.7756 31.0217 38.5262C31.0217 37.3221 31.2714 37.076 32.4926 37.0748C34.9062 37.0736 37.3211 37.0698 39.7359 37.0773C40.6274 37.0798 40.9521 37.3958 40.9533 38.2764C40.9596 42.7331 40.9558 47.191 40.9546 51.649Z" fill="#155DFC"/>
<path d="M29.1375 51.8027C29.1375 51.8402 29.1125 51.8776 29.0751 51.9888C28.6506 51.9888 28.1973 52.0175 27.749 51.9813C27.1934 51.9376 26.8862 51.5416 26.8812 50.8846C26.8712 49.5106 26.8775 48.1367 26.8775 46.7627V45.9845C26.0884 45.9845 25.3279 45.9932 24.5675 45.9833C22.2388 45.9545 20.4807 44.4806 20.0562 42.1998C20.015 41.9762 20.0063 41.7451 20.005 41.5166C20.0013 39.8715 19.9963 38.2265 20.005 36.5815C20.0137 34.6079 21.5433 33.0454 23.45 33.0479C25.3816 33.0516 26.8625 34.5717 26.8762 36.579C26.8862 38.0304 26.8787 39.4831 26.8787 41.0057C27.3495 41.0057 27.7603 40.9882 28.1698 41.0094C28.7867 41.0419 29.14 41.3804 29.1413 41.995C29.15 45.2638 29.1413 48.5326 29.1375 51.8027Z" fill="#155DFC"/>
<path d="M51.9575 41.8326C51.8776 44.1084 49.9023 45.922 47.5311 45.9808C46.7457 45.9995 45.9591 45.9833 45.0988 45.9833V50.5761C45.0975 51.7365 44.8378 51.9938 43.6654 51.9938H42.8275V51.3006C42.8275 48.344 42.8263 45.3874 42.8275 42.4296C42.8275 41.253 43.0772 41.0044 44.2472 41.0032H45.0975V40.3849C45.0988 39.0521 45.0826 37.7194 45.1063 36.3866C45.1387 34.5293 46.6733 33.0466 48.5313 33.0479C50.3356 33.0491 51.9201 34.5293 51.9625 36.3367C52.0062 38.1678 52.0212 40.0027 51.9575 41.8326Z" fill="#155DFC"/>
<path d="M26.8775 28.976C26.8737 30.9045 25.3691 32.4009 23.4362 32.3959C21.5183 32.3922 20 30.8708 20.0025 28.9572C20.0063 27.0686 21.572 25.5048 23.455 25.5098C25.3404 25.5148 26.88 27.0736 26.8775 28.976Z" fill="#155DFC"/>
<path d="M51.975 28.9572C51.9788 30.8708 50.4592 32.3922 48.5425 32.3959C46.6096 32.4009 45.1038 30.9045 45.1 28.976C45.0975 27.0749 46.6371 25.5148 48.5225 25.5098C50.4055 25.5035 51.9713 27.0686 51.975 28.9572Z" fill="#155DFC"/>
</g>
<defs>
<clipPath id="clip0_63_898">
<rect width="32" height="32" fill="white" transform="translate(20 20)"/>
</clipPath>
</defs>
</svg>
