<svg width="24" height="24" viewBox="0 0 24 24" fill="none" xmlns="http://www.w3.org/2000/svg">
<g clip-path="url(#clip0_63_1220)">
<path d="M23.9831 1.32453C23.763 2.75086 23.5111 4.17225 23.2821 5.59661C23.2074 6.06219 22.9724 6.39559 22.5234 6.54355C22.0574 6.69743 21.6402 6.5761 21.2966 6.22692C21.0686 5.99413 20.8446 5.75542 20.511 5.40623C20.3636 5.62127 20.282 5.78994 20.1565 5.91719C18.171 7.9245 16.1816 9.92787 14.1891 11.9293C13.2601 12.8634 12.367 12.8081 11.5594 11.7714C10.9311 10.9656 10.3068 10.1577 9.67949 9.35083C9.67152 9.33998 9.6516 9.33702 9.59385 9.3094C9.47934 9.41692 9.34691 9.53233 9.22344 9.65661C7.03384 11.8583 4.84822 14.0619 2.65663 16.2615C2.01637 16.9037 1.23274 16.9964 0.603437 16.5229C-0.139375 15.9646 -0.209076 14.9713 0.468018 14.2828C1.89191 12.8338 3.32376 11.3946 4.75562 9.95352C6.01222 8.68797 7.27082 7.4244 8.53042 6.16181C9.41263 5.27603 10.3357 5.33423 11.0954 6.31865C11.7197 7.1275 12.344 7.93634 12.9704 8.7442C12.9893 8.76886 13.0201 8.78563 12.9763 8.75012C14.8244 6.99137 16.6416 5.26222 18.5653 3.43147C18.2368 3.14739 17.957 2.92545 17.7011 2.67885C17.3725 2.36024 17.2151 1.98344 17.3675 1.51983C17.5228 1.04735 17.8504 0.802725 18.3393 0.724799C19.7771 0.493983 21.211 0.244425 22.6498 0.0185399C23.5071 -0.11561 24.1135 0.474255 23.9831 1.32453Z" fill="#155DFC"/>
<path d="M21.5385 15.8811C21.5385 18.0827 21.5395 20.2854 21.5385 22.487C21.5375 23.6026 21.1422 23.9893 20.0081 23.9913C19.4276 23.9922 18.8471 24.0001 18.2666 23.9883C17.4142 23.9715 16.9841 23.5395 16.9831 22.704C16.9811 19.2861 16.9771 15.8683 16.994 12.4504C16.995 12.2354 17.1105 11.971 17.2619 11.8142C18.3064 10.7341 19.3937 9.69542 20.4213 8.60052C20.7609 8.23852 21.0307 8.48511 21.2976 8.58178C21.422 8.62617 21.5276 8.90433 21.5286 9.07794C21.5435 11.3457 21.5385 13.6134 21.5385 15.8811Z" fill="#155DFC"/>
<path d="M14.6959 22.7027C14.6949 23.5105 14.2637 23.9643 13.4542 23.986C12.7582 24.0047 12.0612 24.0047 11.3652 23.985C10.6264 23.9643 10.1384 23.5322 10.1355 22.8378C10.1195 19.7356 10.1285 16.6334 10.1285 13.3931C11.4956 14.7395 12.9683 14.996 14.6561 14.2364C14.672 14.3844 14.6949 14.5037 14.6949 14.6221C14.6979 17.316 14.6989 20.0098 14.6959 22.7027Z" fill="#155DFC"/>
<path d="M7.85037 22.5875C7.84937 23.5965 7.45606 23.9842 6.43743 23.9901C5.82307 23.9941 5.2097 24.001 4.59633 23.9881C3.73901 23.9704 3.32081 23.5522 3.31583 22.7019C3.30786 21.387 3.30985 20.0731 3.31981 18.7583C3.32081 18.6093 3.36263 18.417 3.46021 18.3193C4.79349 16.9936 6.13871 15.6807 7.48294 14.3659C7.57256 14.2781 7.66815 14.1952 7.81751 14.0591C7.83245 14.2731 7.84937 14.4122 7.84937 14.5513C7.85136 17.2303 7.85236 19.9084 7.85037 22.5875Z" fill="#155DFC"/>
</g>
<defs>
<clipPath id="clip0_63_1220">
<rect width="24" height="24" fill="white"/>
</clipPath>
</defs>
</svg>
