<svg width="42" height="42" viewBox="0 0 42 42" fill="none" xmlns="http://www.w3.org/2000/svg">
<path d="M0 11.6667C0 5.22334 5.22334 0 11.6667 0H30.3333C36.7767 0 42 5.22334 42 11.6667V30.3333C42 36.7767 36.7767 42 30.3333 42H11.6667C5.22334 42 0 36.7767 0 30.3333V11.6667Z" fill="url(#paint0_linear_63_1198)"/>
<path d="M24.8062 9.3335C26.8947 9.33351 28.5878 11.0266 28.5879 13.1152V17.5022H30.1006C32.1891 17.5022 33.8823 19.1953 33.8823 21.2839V28.8472C33.8823 30.9358 32.1891 32.6289 30.1006 32.6289H14.9738V32.6668H11.9483C9.85976 32.6668 8.16665 30.9737 8.16663 28.8851V26.427C8.16663 24.3385 9.85975 22.6454 11.9483 22.6453H13.4611V13.1152C13.4611 11.0266 15.1542 9.3335 17.2428 9.3335H24.8062ZM11.9483 24.1578C10.6952 24.1578 9.67936 25.1739 9.67936 26.427V28.8851C9.67938 30.1383 10.6952 31.1541 11.9483 31.1541H13.4611V24.1578H11.9483ZM17.2428 10.8462C15.9896 10.8462 14.9738 11.8621 14.9738 13.1152V31.1162H27.0751V13.1152C27.0751 11.8621 26.0593 10.8462 24.8062 10.8462H17.2428ZM28.5879 31.1162H30.1006C31.3537 31.1162 32.3695 30.1004 32.3695 28.8472V21.2839C32.3695 20.0307 31.3537 19.0149 30.1006 19.0149H28.5879V31.1162ZM23.6195 28.3935H18.3015V26.8808H23.6195V28.3935ZM23.6195 23.8553H18.3015V22.3426H23.6195V23.8553ZM23.6195 19.6199H18.3015V18.1071H23.6195V19.6199ZM23.6195 15.0817H18.3015V13.5689H23.6195V15.0817Z" fill="white"/>
<defs>
<linearGradient id="paint0_linear_63_1198" x1="42" y1="42" x2="0" y2="0" gradientUnits="userSpaceOnUse">
<stop stop-color="#00963A"/>
<stop offset="1" stop-color="#007C30"/>
</linearGradient>
</defs>
</svg>
