<svg width="72" height="72" viewBox="0 0 72 72" fill="none" xmlns="http://www.w3.org/2000/svg">
<rect width="72" height="72" rx="16" fill="#8C7259"/>
<g clip-path="url(#clip0_474_4502)">
<path d="M52.3645 28.3175C47.8143 25.7967 43.2751 23.2538 38.7201 20.7424C36.9135 19.7458 35.0661 19.7553 33.258 20.7566C28.7062 23.2743 24.1654 25.8141 19.6136 28.3349C18.6153 28.8877 17.9953 29.698 18 30.8463C18.0032 31.9977 18.6483 32.7953 19.6402 33.345C24.1685 35.8548 28.6842 38.3835 33.2187 40.879C33.7822 41.187 34.4179 41.3987 35.0441 41.5456C36.7801 41.9483 38.2618 41.2407 39.7074 40.3878C40.7637 39.7671 40.996 38.2018 40.1233 37.3205C38.5161 35.7 36.901 34.0858 35.2984 32.4605C34.6204 31.7718 34.5639 31.0879 35.1022 30.5225C35.6437 29.9555 36.4034 30.0202 37.0893 30.7073C38.5537 32.1746 40.015 33.6451 41.4732 35.1187C42.3616 36.0159 43.5199 36.7693 43.0129 38.4688C43.3598 38.314 43.5262 38.2571 43.6769 38.1718C46.579 36.5608 49.4796 34.945 52.3818 33.3355C53.3722 32.7859 54.0063 31.974 54 30.821C53.9937 29.6711 53.3581 28.8688 52.3645 28.3175Z" fill="white"/>
<path d="M40.5282 48.4036C40.5549 48.2267 40.58 48.0514 40.5815 47.8745C40.5925 46.2698 40.5863 44.665 40.5863 43.0587V41.8346C40.2865 41.9941 40.1248 42.0731 39.971 42.1631C37.2933 43.7363 34.6469 43.6857 31.9583 42.1284C29.268 40.5695 26.5291 39.0942 23.809 37.5858C23.5767 37.4579 23.3287 37.3584 22.9991 37.2036C22.9991 38.2777 22.9755 39.1985 23.0053 40.1177C23.0446 41.3497 22.9692 42.6149 23.2204 43.8058C23.8341 46.712 26.3862 48.6484 29.3684 48.6579C33.0742 48.6721 36.7784 48.6863 40.4842 48.7006H40.4858V48.6974C40.4968 48.5995 40.5125 48.5015 40.5282 48.4036Z" fill="white"/>
<path d="M48.9634 37.3837C48.9634 37.3552 48.888 37.3236 48.7954 37.2542C47.4738 37.987 46.1727 38.832 44.7726 39.4528C43.451 40.0372 42.8436 40.8222 43.068 42.3195C43.2124 43.2703 43.1057 44.2622 43.0931 45.2368C43.0806 46.0818 43.0586 46.9284 43.0366 47.7734C43.0288 48.0482 43.0209 48.3231 43.0146 48.5979H43.0178C45.6547 48.729 48.5584 46.2792 48.8425 43.4504C49.0434 41.4445 48.9367 39.407 48.9634 37.3837Z" fill="white"/>
<path d="M40.5049 48.7004H40.486C40.486 48.7004 40.4829 48.7131 40.4829 48.7194C40.4908 48.7194 40.5002 48.7194 40.508 48.7194C40.508 48.7131 40.508 48.7068 40.508 48.7004C40.508 48.7004 40.5065 48.7004 40.5065 48.702L40.5049 48.7004Z" fill="white"/>
<path d="M42.9972 48.6183H43.016H43.0144V48.5978C43.0144 48.5978 43.0019 48.5962 42.9956 48.5962C42.9956 48.6041 42.9956 48.6104 42.9972 48.6183Z" fill="white"/>
<path d="M40.5094 48.7179H40.5078C40.5204 48.8522 40.5345 48.9864 40.5471 49.1207C40.5612 49.2613 40.5722 49.4034 40.5816 49.544C40.6145 50.062 40.5769 50.5943 40.6805 51.0966C40.8155 51.7426 41.2957 52.0364 41.9487 51.9969C42.5718 51.9606 43.0144 51.6083 43.0553 50.9987C43.1086 50.2105 43.0239 49.4145 42.9972 48.6216C42.9972 48.62 42.9956 48.62 42.9972 48.6184C42.1888 48.6532 41.3821 48.6847 40.5737 48.7163C40.5518 48.7163 40.5314 48.7179 40.5094 48.7179Z" fill="white"/>
</g>
<defs>
<clipPath id="clip0_474_4502">
<rect width="36" height="32" fill="white" transform="translate(18 20)"/>
</clipPath>
</defs>
</svg>
