<svg width="72" height="72" viewBox="0 0 72 72" fill="none" xmlns="http://www.w3.org/2000/svg">
<rect width="72" height="72" rx="16" fill="#8C7259"/>
<g clip-path="url(#clip0_474_4492)">
<path d="M52.4057 30.1771H19.5425C19.9863 29.279 20.3958 28.4467 20.8109 27.6171C21.9341 25.3765 23.0737 23.1456 24.1723 20.8954C24.4859 20.2523 24.9352 20 25.6283 20C32.5401 20.011 39.4533 20.0082 46.365 20.0027C46.9527 20.0027 47.4403 20.1344 47.7279 20.7103C49.2607 23.7873 50.8017 26.8616 52.3372 29.9372C52.3659 29.9948 52.3742 30.062 52.4057 30.1771Z" fill="white"/>
<path d="M50.1426 50.5438C50.1412 51.664 49.8276 51.9918 48.7372 51.9959C46.5004 52.0027 44.2622 51.9986 42.0254 51.9972C41.8693 51.9959 41.7118 51.9808 41.4515 51.9671V50.807C41.4515 48.1551 41.4543 45.5045 41.4501 42.854C41.4474 41.1605 40.6639 40.3584 38.9996 40.3529C36.9902 40.346 34.9808 40.3447 32.9727 40.3529C31.3455 40.3598 30.551 41.1674 30.5483 42.8101C30.5428 45.5978 30.5469 48.3868 30.5469 51.1745V51.9972H29.81C27.6635 51.9972 25.5171 52 23.3721 51.9972C22.1544 51.9959 21.8558 51.7038 21.8544 50.5191C21.853 46.5645 21.853 42.6113 21.8558 38.6581C21.8558 38.4359 21.8763 38.2124 21.8845 38.0342C22.8557 37.9355 23.8008 37.9354 24.6939 37.7202C25.4295 37.5433 26.1239 37.1497 26.7992 36.7809C27.117 36.6081 27.3047 36.5615 27.6389 36.7672C30.2935 38.4099 32.9686 38.4071 35.6205 36.7521C35.9259 36.5615 36.1095 36.5903 36.3985 36.7672C39.0572 38.4058 41.7227 38.3962 44.3924 36.774C44.5526 36.6767 44.854 36.5944 44.9718 36.6767C46.5059 37.7311 48.2017 38.1055 50.0988 37.908C50.1152 38.1795 50.1412 38.3962 50.1412 38.6142C50.144 42.5907 50.144 46.5672 50.1426 50.5438Z" fill="white"/>
<path d="M53.4987 32.3423C53.533 34.1646 51.8016 35.4563 50.1962 35.7676C47.8211 36.2269 45.8144 35.2383 44.7679 32.9648C43.8639 35.2122 42.0955 36.0171 39.8655 35.8334C38.0725 35.6853 36.6754 34.8256 36.0193 32.9182C35.0974 35.2122 33.3291 36.0171 31.0991 35.8334C29.3061 35.6853 27.9089 34.8256 27.235 32.8661C26.7899 34.1893 25.9858 35.0244 24.8106 35.4906C23.6668 35.9445 22.5107 35.9856 21.33 35.6469C19.7822 35.204 18.4412 33.8863 18.5015 32.3423H53.4987Z" fill="white"/>
<path d="M39.2598 42.4907H32.7124V51.948H39.2598V42.4907Z" fill="white"/>
</g>
<defs>
<clipPath id="clip0_474_4492">
<rect width="35" height="32" fill="white" transform="translate(18.5 20)"/>
</clipPath>
</defs>
</svg>
