<svg width="20" height="24" viewBox="0 0 20 24" fill="none" xmlns="http://www.w3.org/2000/svg">
<g clip-path="url(#clip0_63_1112)">
<path d="M19.3874 17.7162C16.6487 19.4949 13.9188 21.2866 11.1742 23.0554C9.71394 23.9948 8.10746 24.1288 6.42688 23.9067C4.47262 23.6486 2.51046 23.4385 0.549289 23.2325C0.118523 23.1874 -0.00300075 22.9954 -3.67586e-05 22.5902C0.0118192 20.9245 0.0137952 19.2578 -3.67586e-05 17.5921C-0.00398874 17.1499 0.128403 16.9648 0.597701 16.9779C1.6677 17.0089 2.54306 16.6027 3.18032 15.6983C3.92132 14.6469 4.94192 14.1327 6.20952 14.3257C7.69349 14.5508 9.16066 14.4488 10.6348 14.2887C11.3016 14.2167 11.8895 14.3468 12.2343 15.001C12.5544 15.6093 12.4299 16.4706 11.9359 17.0029C11.1811 17.8152 10.1783 18.0633 9.13892 18.2044C8.58861 18.2794 8.03533 18.3234 7.44649 18.3854C7.84564 19.4239 8.45029 19.731 9.34542 19.3128C10.282 18.8756 11.1801 18.3504 12.0871 17.8492C13.7153 16.9498 15.3179 15.9774 17.1535 15.5753C17.7473 15.4452 18.3915 15.4682 19.0011 15.5323C19.4931 15.5843 19.8863 15.8984 19.9792 16.4506C20.0731 17.0059 19.8508 17.416 19.3874 17.7162Z" fill="#00963A"/>
<path d="M11.434 4.35687e-05C7.76562 -0.0129618 4.85202 2.88725 4.83818 6.56678C4.82435 10.2133 7.74388 13.1915 11.3372 13.1955C14.9177 13.1995 17.8817 10.2083 17.8817 6.58979C17.8807 3.0043 14.9543 0.013049 11.434 4.35687e-05ZM15.0442 6.26665L13.7361 7.39813C13.5721 7.54018 13.5009 7.76228 13.5513 7.97437L13.9524 9.66907C14.0671 10.1533 13.5464 10.5364 13.1265 10.2763L11.6593 9.36595C11.4755 9.2529 11.2443 9.2529 11.0606 9.36595L9.59341 10.2763C9.17351 10.5364 8.65284 10.1533 8.76744 9.66907L9.16857 7.97437C9.21896 7.76228 9.14782 7.54018 8.98381 7.39813L7.67571 6.26665C7.30126 5.94252 7.49984 5.32226 7.99088 5.28324L9.70604 5.14619C9.92142 5.12918 10.1082 4.99112 10.1902 4.79004L10.8492 3.18037C11.0379 2.72018 11.682 2.72018 11.8707 3.18037L12.5287 4.79004C12.6117 4.99112 12.7985 5.12918 13.0138 5.14619L14.729 5.28324C15.2191 5.32226 15.4186 5.94252 15.0442 6.26665Z" fill="#00963A"/>
</g>
<defs>
<clipPath id="clip0_63_1112">
<rect width="20" height="24" fill="white"/>
</clipPath>
</defs>
</svg>
