<svg width="72" height="72" viewBox="0 0 72 72" fill="none" xmlns="http://www.w3.org/2000/svg">
<rect width="72" height="72" rx="16" fill="#8C7259"/>
<g clip-path="url(#clip0_474_4514)">
<path d="M44.4101 27.7932C43.9685 23.3282 40.4225 19.9975 35.9344 20C32.521 20.0025 29.5669 21.9339 28.2932 25.0585C27.2697 27.5696 27.2496 30.117 28.1793 32.6668C29.7421 36.952 32.3709 40.5812 35.2499 44.0518C35.6941 44.5878 36.3348 44.5478 36.8052 43.9844C39.2539 41.0535 41.4735 37.9664 43.0788 34.4846C44.0548 32.3695 44.6466 30.1932 44.4101 27.7932ZM35.9669 31.2576C34.4104 31.2501 33.1391 29.9646 33.1654 28.4266C33.1929 26.8825 34.4905 25.6144 36.0245 25.6319C37.5647 25.6507 38.8472 26.9574 38.8222 28.4841C38.7972 30.0483 37.5434 31.2651 35.9669 31.2576Z" fill="white"/>
<path d="M49.2611 44.4729C45.2559 46.548 41.3271 48.5882 37.3895 50.6108C37.2519 50.682 36.9616 50.667 36.8627 50.5696C34.807 48.5344 32.7675 46.4818 30.6592 44.3667C31.2072 44.0781 31.729 43.8033 32.297 43.5047C32.775 44.0819 33.2442 44.6541 33.7184 45.2238C34.9847 46.7442 36.9879 46.7554 38.2516 45.2537C40.3199 42.7963 42.1729 40.1903 43.767 37.3993C43.8796 37.2019 44.1936 37.1119 44.4226 36.9908C44.4877 36.9558 44.589 36.997 44.6704 36.9833C45.7164 36.8009 46.2431 37.2943 46.6185 38.2513C47.4368 40.3327 48.3615 42.3728 49.2611 44.4729Z" fill="white"/>
<path d="M35.3051 51.7964C34.9198 51.8764 34.627 51.9901 34.3342 51.9913C29.9374 52.0025 25.5419 52.0013 21.1463 51.9976C20.1416 51.9976 19.785 51.4179 20.1266 50.4784C20.3831 49.7725 20.8172 49.3315 21.5017 48.9979C23.8164 47.8698 26.1012 46.6755 28.3934 45.4999C28.6662 45.3599 28.8639 45.2687 29.1454 45.5523C31.1211 47.5525 33.118 49.5289 35.1074 51.5153C35.15 51.5565 35.1775 51.614 35.3051 51.7964Z" fill="white"/>
<path d="M31.1195 42.0041C28.0302 43.5795 24.9647 45.1437 21.7979 46.759C21.8754 46.5229 21.908 46.3892 21.9605 46.2643C23.1729 43.4421 24.3954 40.6249 25.5903 37.7964C25.8355 37.2167 26.2022 37.0156 26.8228 36.9631C27.7011 36.8882 28.1816 37.1755 28.6083 37.9751C29.339 39.3456 30.2449 40.6211 31.1195 42.0041Z" fill="white"/>
<path d="M51.0126 51.9937C47.0312 52.0049 43.0498 51.9986 39.0684 51.9986C39.0572 51.9612 39.0459 51.9224 39.0347 51.885C42.667 50.0047 46.2993 48.1245 50.0041 46.2056C50.3157 46.9302 50.6185 47.6285 50.9188 48.3269C51.2466 49.0902 51.5882 49.8473 51.8985 50.6182C52.2 51.3665 51.8096 51.9912 51.0126 51.9937Z" fill="white"/>
<path d="M36.928 28.4704C36.9205 29.0076 36.495 29.4037 35.9508 29.3799C35.4415 29.3587 35.0536 28.9502 35.0611 28.4429C35.0674 27.9594 35.4991 27.5209 35.9783 27.5109C36.48 27.4997 36.9367 27.9607 36.928 28.4704Z" fill="white"/>
</g>
<defs>
<clipPath id="clip0_474_4514">
<rect width="32" height="32" fill="white" transform="translate(20 20)"/>
</clipPath>
</defs>
</svg>
