<svg width="63" height="63" viewBox="0 0 63 63" fill="none" xmlns="http://www.w3.org/2000/svg">
<path d="M0 17.5C0 7.83502 7.83502 0 17.5 0H45.5C55.165 0 63 7.83502 63 17.5V45.5C63 55.165 55.165 63 45.5 63H17.5C7.83502 63 0 55.165 0 45.5V17.5Z" fill="#36596C"/>
<path d="M37.2093 14C40.3421 14 42.8818 16.5397 42.8818 19.6725V26.253H45.1509C48.2838 26.253 50.8235 28.7927 50.8235 31.9255V43.2706C50.8235 46.4035 48.2838 48.9431 45.1509 48.9432H22.4608V49H17.9225C14.7897 49 12.25 46.4603 12.25 43.3275V39.6403C12.25 36.5074 14.7897 33.9678 17.9225 33.9678H20.1917V19.6725C20.1917 16.5397 22.7313 14 25.8642 14H37.2093ZM17.9225 36.2365C16.0428 36.2365 14.5191 37.7606 14.5191 39.6403V43.3275C14.5191 45.2072 16.0429 46.7309 17.9225 46.7309H20.1917V36.2365H17.9225ZM25.8642 16.2691C23.9845 16.2691 22.4608 17.7928 22.4608 19.6725V46.6741H40.6127V19.6725C40.6127 17.7929 39.089 16.2691 37.2093 16.2691H25.8642ZM42.8818 46.6741H45.1509C47.0306 46.674 48.5544 45.1503 48.5544 43.2706V31.9255C48.5544 30.0458 47.0306 28.5221 45.1509 28.5221H42.8818V46.6741ZM35.4294 42.59H27.4523V40.3209H35.4294V42.59ZM35.4294 35.7827H27.4523V33.5136H35.4294V35.7827ZM35.4294 29.4296H27.4523V27.1605H35.4294V29.4296ZM35.4294 22.6223H27.4523V20.3531H35.4294V22.6223Z" fill="white"/>
</svg>
