<svg width="30" height="32" viewBox="0 0 30 32" fill="none" xmlns="http://www.w3.org/2000/svg">
<g clip-path="url(#clip0_281_1993)">
<path d="M29.9893 23.0919C29.9816 21.6402 29.2192 20.886 27.7632 20.8536C27.1891 20.8413 26.615 20.8521 26.0255 20.8521C26.0102 20.5165 25.998 20.3149 25.9919 20.1117C25.9475 18.5446 25.2309 17.8473 23.6555 17.8442C22.6099 17.8411 21.5642 17.8427 20.5185 17.8427C18.542 17.8442 17.9694 18.3999 17.9219 20.3672C17.9189 20.4904 17.9066 20.615 17.8898 20.8521C17.2529 20.8521 16.6941 20.8413 16.1353 20.8536C14.6487 20.8844 13.9383 21.6048 13.9352 23.0888C13.9306 25.3193 13.9306 27.5498 13.9352 29.7803C13.9383 31.1996 14.6931 31.9893 16.0893 31.9924C19.9919 32.0031 23.8944 32.0031 27.7954 31.9924C29.1717 31.9893 29.9786 31.1781 29.9878 29.7849C30.0046 27.5529 30.0031 25.3224 29.9878 23.0919H29.9893ZM24.6063 20.7951H19.2616C19.0227 19.3466 19.2294 19.0942 20.6058 19.0926H23.2024C24.6752 19.0942 24.8145 19.2558 24.6063 20.7951Z" fill="#2B302D"/>
<path d="M19.4912 16.528C17.8453 16.9329 16.8823 17.8857 16.6435 19.5236C16.3909 19.5359 16.1658 19.5513 15.9408 19.559C14.0515 19.6268 12.7211 20.9136 12.6736 22.8086C12.6292 24.5773 12.6614 26.346 12.6598 28.1147C12.6598 28.3903 12.6598 28.6674 12.6598 28.9999H7.08699V25.8611C7.08699 25.604 7.08393 25.3485 7.08546 25.0914C7.08699 24.6681 6.97676 24.2294 6.48378 24.3356C6.22504 24.391 5.87903 24.8067 5.86066 25.0791C5.78717 26.1243 5.83157 27.1788 5.82851 28.2302C5.82698 28.4796 5.80707 28.7274 5.7933 29.0476C4.04642 29.0476 2.34548 29.0722 0.644532 29.0353C0.0306002 29.0229 -0.0566669 28.538 0.0275383 28.027C0.300057 26.3614 0.575637 24.6974 0.855811 23.0333C1.02881 22.0004 1.14976 20.9537 1.40391 19.9408C2.10664 17.1376 4.7614 15.0102 7.55242 14.9056C8.09439 14.884 8.45724 15.038 8.76956 15.4921C9.581 16.6697 10.4292 17.8226 11.2666 18.9833C11.3371 19.0818 11.4289 19.1649 11.5575 19.3081C12.4807 18.0227 13.3947 16.7974 14.2536 15.5352C14.5813 15.0518 14.9441 14.864 15.5213 14.9071C16.9865 15.0149 18.274 15.5213 19.4912 16.528Z" fill="#2B302D"/>
<path d="M17.2008 6.27593C16.9436 8.62498 16.0189 11.1449 13.7897 13.0075C12.4608 14.1189 10.9038 14.1359 9.47841 13.1768C7.18191 11.6298 5.41666 7.34116 5.9617 4.62729C6.5297 1.79489 9.23345 -0.27554 11.9663 0.0307907C15.0528 0.375605 17.236 2.78007 17.2008 6.27593Z" fill="#2B302D"/>
</g>
<defs>
<clipPath id="clip0_281_1993">
<rect width="30" height="32" fill="white"/>
</clipPath>
</defs>
</svg>
