<svg width="22" height="32" viewBox="0 0 22 32" fill="none" xmlns="http://www.w3.org/2000/svg">
<g clip-path="url(#clip0_281_1986)">
<path d="M19.2423 8.20106C19.2448 12.7381 15.5913 16.4046 11.0345 16.4383C6.49888 16.4721 2.73136 12.7193 2.76017 8.19607C2.78774 3.65283 6.46631 -0.00249638 11.0081 1.27921e-06C15.56 0.00249894 19.2386 3.66656 19.2423 8.20106Z" fill="#2B302D"/>
<path d="M21.9996 29.3337C21.9946 30.3565 21.5523 31.0209 20.5462 31.222C18.9149 31.5467 17.2711 31.8289 15.621 32.0362C12.9848 32.3659 10.3299 32.4333 7.68873 32.1524C5.62142 31.9326 3.56538 31.5979 1.51686 31.2407C0.431829 31.0521 -0.0530508 30.2779 0.00458351 29.1364C0.15744 26.1355 1.54693 23.7465 3.73578 21.7821C4.36599 21.2164 5.11524 20.7843 5.79933 20.276C6.14764 20.0175 6.37568 20.0375 6.67262 20.3984C7.49077 21.3962 8.36155 22.3515 9.20978 23.3244C10.3487 24.6332 11.6204 24.6481 12.7555 23.3606C13.7316 22.2529 14.7026 21.1427 15.7049 20C17.9476 21.1889 19.6817 22.8398 20.8694 25.044C21.5899 26.379 22.0058 27.8027 21.9996 29.3337Z" fill="#2B302D"/>
</g>
<defs>
<clipPath id="clip0_281_1986">
<rect width="22" height="32" fill="white"/>
</clipPath>
</defs>
</svg>
