<svg width="27" height="32" viewBox="0 0 27 32" fill="none" xmlns="http://www.w3.org/2000/svg">
<g clip-path="url(#clip0_281_2001)">
<path d="M26.173 23.6219C22.4758 25.9935 18.7905 28.3825 15.0852 30.7408C13.1139 31.9934 10.9451 32.1721 8.67633 31.876C6.03808 31.5318 3.38916 31.2517 0.741583 30.9769C0.160048 30.9169 -0.00400828 30.6608 -6.89951e-06 30.1206C0.0159986 27.8997 0.0186662 25.6774 -6.89951e-06 23.4565C-0.00534208 22.8669 0.173386 22.6201 0.806939 22.6375C2.25144 22.6788 3.43318 22.1373 4.29348 20.9314C5.29382 19.5295 6.67163 18.8439 8.38289 19.1013C10.3863 19.4014 12.3669 19.2654 14.357 19.052C15.2573 18.9559 16.0509 19.1293 16.5164 20.0017C16.9485 20.8127 16.7805 21.9612 16.1136 22.6708C15.0945 23.7539 13.7407 24.0847 12.3376 24.2728C11.5947 24.3729 10.8477 24.4315 10.0528 24.5142C10.5917 25.8988 11.4079 26.3083 12.6164 25.7508C13.8808 25.1679 15.0932 24.4676 16.3176 23.7993C18.5157 22.6001 20.6791 21.3036 23.1573 20.7674C23.9589 20.5939 24.8286 20.6246 25.6515 20.71C26.3158 20.7794 26.8466 21.1982 26.972 21.9345C27.0987 22.6748 26.7986 23.2217 26.173 23.6219Z" fill="white"/>
<path d="M15.436 5.80916e-05C10.4836 -0.0172825 6.55023 3.84966 6.53156 8.75571C6.51289 13.6177 10.4542 17.5887 15.3053 17.5941C20.1389 17.5994 24.1403 13.6111 24.1403 8.78639C24.139 4.00573 20.1883 0.0173986 15.436 5.80916e-05ZM20.3097 8.35554L18.5437 9.86417C18.3223 10.0536 18.2263 10.3497 18.2943 10.6325L18.8358 12.8921C18.9905 13.5377 18.2876 14.0486 17.7208 13.7018L15.7401 12.4879C15.492 12.3372 15.1799 12.3372 14.9318 12.4879L12.9511 13.7018C12.3843 14.0486 11.6813 13.5377 11.8361 12.8921L12.3776 10.6325C12.4456 10.3497 12.3496 10.0536 12.1282 9.86417L10.3622 8.35554C9.85671 7.92336 10.1248 7.09635 10.7877 7.04433L13.1032 6.86158C13.3939 6.83891 13.646 6.65483 13.7567 6.38672L14.6464 4.24049C14.9011 3.6269 15.7708 3.6269 16.0255 4.24049L16.9138 6.38672C17.0259 6.65483 17.2779 6.83891 17.5687 6.86158L19.8842 7.04433C20.5457 7.09635 20.8152 7.92336 20.3097 8.35554Z" fill="white"/>
</g>
<defs>
<clipPath id="clip0_281_2001">
<rect width="27" height="32" fill="white"/>
</clipPath>
</defs>
</svg>
