<svg width="56" height="56" viewBox="0 0 56 56" fill="none" xmlns="http://www.w3.org/2000/svg">
<rect width="56" height="56" rx="14" fill="#E2F5EA"/>
<g clip-path="url(#clip0_107_2893)">
<path d="M43.5824 27.0942C42.8163 26.3197 42.0542 25.5414 41.2619 24.793C37.5461 21.2858 33.1325 19.4957 27.1277 19.4996C25.4065 19.4905 22.9218 19.9638 20.5146 20.9116C17.1535 22.2363 14.6767 24.6717 12.3103 27.248C11.8977 27.6965 11.8938 28.3015 12.3182 28.7382C13.6072 30.0655 14.8567 31.4501 16.2771 32.6261C22.0914 37.441 31.0499 37.5974 37.3608 34.0368C39.7942 32.6652 41.7455 30.7448 43.6717 28.7865C44.1526 28.2989 44.0922 27.6105 43.5824 27.0942ZM27.9214 33.7448C24.6917 33.7148 22.1768 31.1268 22.2162 27.8699C22.2543 24.6978 24.8533 22.2128 28.1014 22.2402C31.3337 22.2689 33.8473 24.8556 33.8092 28.1137C33.7724 31.2832 31.1668 33.7747 27.9214 33.7448Z" fill="#00963A"/>
<path d="M32.1732 28.7138C31.825 30.7385 30.0196 32.1909 27.9251 32.1492C25.8176 32.1088 24.0989 30.5625 23.8282 28.4647C23.5773 26.5234 24.9136 24.5247 26.8569 23.9732C27.1052 23.9015 27.3917 23.9615 27.6597 23.9615C27.619 24.2027 27.6203 24.4595 27.5323 24.6838C26.916 26.2692 27.6518 27.9106 29.2404 28.4152C29.5466 28.513 29.8803 28.5286 30.2889 28.5964C30.6647 28.4856 31.097 28.3487 31.5346 28.2327C31.7146 28.1857 31.9655 28.1075 32.0785 28.1896C32.185 28.2666 32.2034 28.5404 32.1732 28.7138Z" fill="#00963A"/>
</g>
<defs>
<clipPath id="clip0_107_2893">
<rect width="32" height="17" fill="white" transform="translate(12 19.5)"/>
</clipPath>
</defs>
</svg>
