<svg width="56" height="56" viewBox="0 0 56 56" fill="none" xmlns="http://www.w3.org/2000/svg">
<rect width="56" height="56" rx="14" fill="#797676"/>
<g clip-path="url(#clip0_474_4842)">
<path d="M43.5825 27.0942C42.8165 26.3197 42.0544 25.5414 41.262 24.793C37.5462 21.2858 33.1326 19.4957 27.1279 19.4996C25.4066 19.4905 22.9219 19.9638 20.5147 20.9116C17.1536 22.2363 14.6768 24.6717 12.3104 27.248C11.8978 27.6965 11.8939 28.3015 12.3183 28.7382C13.6073 30.0655 14.8569 31.4501 16.2772 32.6261C22.0915 37.441 31.05 37.5974 37.3609 34.0368C39.7944 32.6652 41.7456 30.7448 43.6718 28.7865C44.1527 28.2989 44.0923 27.6105 43.5825 27.0942ZM27.9215 33.7448C24.6918 33.7148 22.1769 31.1268 22.2163 27.8699C22.2544 24.6978 24.8534 22.2128 28.1015 22.2402C31.3338 22.2689 33.8474 24.8556 33.8093 28.1137C33.7725 31.2832 31.167 33.7747 27.9215 33.7448Z" fill="white"/>
<path d="M32.173 28.7138C31.8248 30.7385 30.0195 32.1909 27.925 32.1492C25.8174 32.1088 24.0988 30.5625 23.8281 28.4647C23.5772 26.5234 24.9134 24.5247 26.8568 23.9732C27.1051 23.9015 27.3916 23.9615 27.6596 23.9615C27.6189 24.2027 27.6202 24.4595 27.5321 24.6838C26.9159 26.2692 27.6517 27.9106 29.2403 28.4152C29.5464 28.513 29.8802 28.5286 30.2888 28.5964C30.6646 28.4856 31.0969 28.3487 31.5344 28.2327C31.7145 28.1857 31.9654 28.1075 32.0784 28.1896C32.1849 28.2666 32.2032 28.5404 32.173 28.7138Z" fill="white"/>
</g>
<defs>
<clipPath id="clip0_474_4842">
<rect width="32" height="17" fill="white" transform="translate(12 19.5)"/>
</clipPath>
</defs>
</svg>
