<svg width="56" height="56" viewBox="0 0 56 56" fill="none" xmlns="http://www.w3.org/2000/svg">
<rect width="56" height="56" rx="14" fill="#797676"/>
<g clip-path="url(#clip0_474_4852)">
<path d="M37.9119 20.942C37.8 19.9705 37.3574 19.2362 36.3858 18.8855C33.8457 17.9684 31.3159 17.0214 28.7627 16.1408C28.306 15.9833 27.7074 15.9439 27.2601 16.0977C24.6185 17.0092 22.0005 17.9872 19.3815 18.9587C18.6532 19.2287 18.2397 19.7726 18.0743 20.5444C17.5161 23.1465 17.4381 25.7787 17.5358 28.4221C17.6091 30.3867 18.1006 32.2049 19.3683 33.7709C21.4629 36.3599 24.097 38.2598 27.0299 39.7761C27.6783 40.1118 28.3671 40.0536 29.0174 39.7142C31.6176 38.3535 33.9754 36.6675 35.945 34.4817C37.0483 33.257 37.9344 31.8917 38.159 30.2216C38.3206 29.0176 38.3714 27.7986 38.5001 26.2373C38.3291 24.691 38.1261 22.8155 37.9119 20.942ZM27.9001 21.9697C29.3557 21.9697 30.5106 23.1231 30.5162 24.5822C30.5209 26.03 29.3576 27.2106 27.916 27.22C26.4801 27.2294 25.2867 26.061 25.2622 24.6225C25.2388 23.1728 26.435 21.9688 27.9001 21.9697ZM32.281 31.0534C32.2312 32.0127 31.5744 32.7282 30.6159 32.8444C29.7466 32.9495 28.8727 33.0113 28.0006 33.092C27.1041 33.0123 26.2142 32.9495 25.3299 32.8482C24.3319 32.7328 23.6835 32.053 23.6159 31.0534C23.583 30.5723 23.5858 30.0857 23.6243 29.6046C23.6892 28.8207 24.3159 28.184 25.1044 28.1718C26.9979 28.1427 28.8924 28.1418 30.7859 28.1718C31.5866 28.184 32.2247 28.8526 32.2763 29.6506C32.3064 30.1166 32.3055 30.5864 32.281 31.0534Z" fill="white"/>
</g>
<defs>
<clipPath id="clip0_474_4852">
<rect width="21" height="24" fill="white" transform="translate(17.5 16)"/>
</clipPath>
</defs>
</svg>
