<svg width="56" height="56" viewBox="0 0 56 56" fill="none" xmlns="http://www.w3.org/2000/svg">
<rect width="56" height="56" rx="14" fill="#E2F5EA"/>
<g clip-path="url(#clip0_107_2908)">
<path d="M37.9117 20.942C37.7999 19.9705 37.3573 19.2362 36.3856 18.8855C33.8456 17.9684 31.3158 17.0214 28.7626 16.1408C28.3059 15.9833 27.7073 15.9439 27.26 16.0977C24.6184 17.0092 22.0003 17.9872 19.3813 18.9587C18.6531 19.2287 18.2396 19.7726 18.0742 20.5444C17.516 23.1465 17.438 25.7787 17.5357 28.4221C17.609 30.3867 18.1005 32.2049 19.3682 33.7709C21.4628 36.3599 24.0969 38.2598 27.0297 39.7761C27.6782 40.1118 28.367 40.0536 29.0173 39.7142C31.6175 38.3535 33.9752 36.6675 35.9449 34.4817C37.0481 33.257 37.9343 31.8917 38.1589 30.2216C38.3205 29.0176 38.3713 27.7986 38.5 26.2373C38.329 24.691 38.126 22.8155 37.9117 20.942ZM27.8999 21.9697C29.3556 21.9697 30.5105 23.1231 30.5161 24.5822C30.5208 26.03 29.3574 27.2106 27.9159 27.22C26.48 27.2294 25.2866 26.061 25.2621 24.6225C25.2386 23.1728 26.4349 21.9688 27.8999 21.9697ZM32.2809 31.0534C32.2311 32.0127 31.5743 32.7282 30.6157 32.8444C29.7465 32.9495 28.8725 33.0113 28.0005 33.092C27.104 33.0123 26.2141 32.9495 25.3298 32.8482C24.3318 32.7328 23.6834 32.053 23.6157 31.0534C23.5828 30.5723 23.5857 30.0857 23.6242 29.6046C23.689 28.8207 24.3158 28.184 25.1043 28.1718C26.9978 28.1427 28.8923 28.1418 30.7858 28.1718C31.5865 28.184 32.2245 28.8526 32.2762 29.6506C32.3063 30.1166 32.3054 30.5864 32.2809 31.0534Z" fill="#00963A"/>
</g>
<defs>
<clipPath id="clip0_107_2908">
<rect width="21" height="24" fill="white" transform="translate(17.5 16)"/>
</clipPath>
</defs>
</svg>
