<svg width="56" height="56" viewBox="0 0 56 56" fill="none" xmlns="http://www.w3.org/2000/svg">
<rect width="56" height="56" rx="14" fill="#E2F5EA"/>
<path d="M28 15.999C34.6272 15.9992 40 21.3727 40 28C39.9997 34.6271 34.6271 39.9998 28 40C21.3727 40 16.0003 34.6272 16 28C16 21.3726 21.3726 15.999 28 15.999ZM34.6504 23.1875C34.0951 22.6126 33.1843 22.6022 32.6162 23.1641L26.2627 29.4502L23.6934 26.9092C23.1252 26.3471 22.2145 26.3575 21.6592 26.9326C21.1041 27.5077 21.1148 28.4291 21.6826 28.9912L25.2568 32.5283C25.8159 33.0814 26.7095 33.0814 27.2686 32.5283L34.627 25.2471C35.1951 24.6849 35.2057 23.7626 34.6504 23.1875Z" fill="#00963A"/>
</svg>
