<svg width="56" height="56" viewBox="0 0 56 56" fill="none" xmlns="http://www.w3.org/2000/svg">
<rect width="56" height="56" rx="14" fill="#797676"/>
<path fill-rule="evenodd" clip-rule="evenodd" d="M28 15.9995C34.6272 15.9997 40 21.3732 40 28.0005C39.9997 34.6276 34.6271 40.0003 28 40.0005C21.3727 40.0005 16.0003 34.6277 16 28.0005C16 21.3731 21.3726 15.9995 28 15.9995ZM34.6504 23.188C34.0951 22.6131 33.1843 22.6027 32.6162 23.1646L26.2627 29.4507L23.6934 26.9097C23.1252 26.3476 22.2145 26.358 21.6592 26.9331C21.1041 27.5082 21.1148 28.4296 21.6826 28.9917L25.2568 32.5288C25.8159 33.0819 26.7095 33.0819 27.2686 32.5288L34.627 25.2476C35.1951 24.6854 35.2057 23.7631 34.6504 23.188Z" fill="white"/>
</svg>
