<svg width="56" height="56" viewBox="0 0 56 56" fill="none" xmlns="http://www.w3.org/2000/svg">
<rect width="56" height="56" rx="14" fill="#E2F5EA"/>
<g clip-path="url(#clip0_107_2849)">
<path d="M30.2914 26.8125C28.7806 26.7949 27.2697 26.7993 25.7589 26.8114C23.1941 26.8335 21.4974 28.5482 21.4832 31.1484C21.4701 33.7033 21.4788 36.2593 21.481 38.8142C21.4832 39.7394 21.7325 39.9868 22.6606 39.989C23.4248 39.9901 24.189 39.9912 24.9531 39.9912C25.9731 39.9912 26.992 39.9901 28.0109 39.9901H29.6486C30.9233 39.9912 32.1969 39.9934 33.4716 39.9868C34.2293 39.9835 34.5222 39.7052 34.5244 38.9655C34.5332 36.3001 34.5627 33.6337 34.5168 30.9695C34.4731 28.4974 32.7567 26.8413 30.2914 26.8125Z" fill="#00963A"/>
<path d="M27.9103 25.7968C30.6413 25.8421 32.7993 23.7167 32.8463 20.9354C32.8922 18.2525 30.7036 16.0155 28.0164 16.0001C25.3915 15.9846 23.2127 18.1398 23.1635 20.8007C23.1132 23.5356 25.2188 25.7516 27.9103 25.7968Z" fill="#00963A"/>
<path d="M17.799 28.9777C15.7776 29.0561 14.0623 30.7929 14.0208 32.83C13.988 34.4111 13.9978 35.9943 14.0197 37.5765C14.0361 38.8131 14.9118 39.8366 16.1264 39.9172C17.3748 39.9989 18.6331 39.9349 19.8838 39.9349C19.9767 36.2836 19.6969 32.6379 20.0686 28.9722C19.3241 28.9722 18.561 28.9479 17.799 28.9777Z" fill="#00963A"/>
<path d="M41.9945 33.0079C41.9847 31.1508 40.7657 29.4946 38.9695 29.1148C37.9867 28.9072 36.9503 28.9647 35.9325 28.9028C36.3119 32.6568 36.0364 36.3059 36.1206 39.9903C36.3283 39.9903 36.5436 39.9914 36.759 39.9892C37.7243 39.9837 38.6951 40.0345 39.6539 39.9561C41.1637 39.8335 41.9923 38.8553 41.9956 37.3139C41.9989 35.8786 42.0033 34.4432 41.9945 33.0079Z" fill="#00963A"/>
<path d="M19.4793 27.897C21.504 27.897 23.099 26.2684 23.0924 24.2092C23.087 22.1965 21.4734 20.5867 19.4651 20.5889C17.4579 20.5911 15.8618 22.1987 15.8552 24.2247C15.8487 26.2894 17.436 27.8981 19.4793 27.897Z" fill="#00963A"/>
<path d="M36.5447 27.897C38.5836 27.8925 40.1645 26.2772 40.1535 24.2103C40.1426 22.1876 38.541 20.5878 36.5294 20.5889C34.5255 20.59 32.9185 22.2064 32.9163 24.2236C32.9141 26.2805 34.5157 27.9014 36.5447 27.897Z" fill="#00963A"/>
</g>
<defs>
<clipPath id="clip0_107_2849">
<rect width="28" height="24" fill="white" transform="translate(14 16)"/>
</clipPath>
</defs>
</svg>
