<svg width="56" height="56" viewBox="0 0 56 56" fill="none" xmlns="http://www.w3.org/2000/svg">
<rect width="56" height="56" rx="14" fill="#797676"/>
<g clip-path="url(#clip0_474_4821)">
<path d="M30.2914 26.8125C28.7805 26.7949 27.2696 26.7993 25.7588 26.8114C23.1941 26.8335 21.4974 28.5482 21.4831 31.1484C21.47 33.7033 21.4788 36.2593 21.481 38.8142C21.4831 39.7394 21.7324 39.9868 22.6606 39.989C23.4247 39.9901 24.1889 39.9912 24.9531 39.9912C25.9731 39.9912 26.992 39.9901 28.0109 39.9901H29.6485C30.9232 39.9912 32.1969 39.9934 33.4716 39.9868C34.2292 39.9835 34.5222 39.7052 34.5244 38.9655C34.5331 36.3001 34.5626 33.6337 34.5167 30.9695C34.473 28.4974 32.7566 26.8413 30.2914 26.8125Z" fill="white"/>
<path d="M27.9103 25.7968C30.6412 25.8421 32.7993 23.7167 32.8463 20.9354C32.8922 18.2525 30.7035 16.0155 28.0164 16.0001C25.3915 15.9846 23.2127 18.1398 23.1635 20.8007C23.1132 23.5356 25.2188 25.7516 27.9103 25.7968Z" fill="white"/>
<path d="M17.7989 28.9777C15.7775 29.0561 14.0622 30.7929 14.0207 32.83C13.9879 34.4111 13.9977 35.9943 14.0196 37.5765C14.036 38.8131 14.9117 39.8366 16.1263 39.9172C17.3747 39.9989 18.6331 39.9349 19.8837 39.9349C19.9766 36.2836 19.6968 32.6379 20.0685 28.9722C19.324 28.9722 18.5609 28.9479 17.7989 28.9777Z" fill="white"/>
<path d="M41.9946 33.0079C41.9848 31.1508 40.7658 29.4946 38.9696 29.1148C37.9868 28.9072 36.9504 28.9647 35.9326 28.9028C36.312 32.6568 36.0365 36.3059 36.1207 39.9903C36.3284 39.9903 36.5437 39.9914 36.7591 39.9892C37.7244 39.9837 38.6952 40.0345 39.654 39.9561C41.1638 39.8335 41.9924 38.8553 41.9957 37.3139C41.999 35.8786 42.0034 34.4432 41.9946 33.0079Z" fill="white"/>
<path d="M19.4791 27.897C21.5038 27.897 23.0988 26.2684 23.0922 24.2092C23.0868 22.1965 21.4731 20.5867 19.4649 20.5889C17.4577 20.5911 15.8616 22.1987 15.855 24.2247C15.8484 26.2894 17.4358 27.8981 19.4791 27.897Z" fill="white"/>
<path d="M36.545 27.897C38.5838 27.8925 40.1647 26.2772 40.1537 24.2103C40.1428 22.1876 38.5412 20.5878 36.5297 20.5889C34.5258 20.59 32.9187 22.2064 32.9165 24.2236C32.9143 26.2805 34.5159 27.9014 36.545 27.897Z" fill="white"/>
</g>
<defs>
<clipPath id="clip0_474_4821">
<rect width="28" height="24" fill="white" transform="translate(14 16)"/>
</clipPath>
</defs>
</svg>
