<svg width="56" height="56" viewBox="0 0 56 56" fill="none" xmlns="http://www.w3.org/2000/svg">
<rect width="56" height="56" rx="14" fill="#E2F5EA"/>
<g clip-path="url(#clip0_107_2921)">
<path d="M39.8793 21.6433C39.7609 18.4776 38.1128 16.6999 35.013 16.3043C33.0807 16.0571 31.1145 15.9885 29.1641 16.0009C26.4422 16.0189 23.7112 16.0773 21.0028 16.32C18.3948 16.5549 16.899 17.9753 16.4241 20.5251C16.1523 21.9871 16.0981 23.4963 16.0316 24.9875C15.9695 26.4001 16.018 27.8172 16.018 29.2432C16.555 29.0746 17.0457 28.8004 17.5454 28.7825C19.6063 28.706 21.6774 28.5959 23.7327 28.715C25.5217 28.8184 26.7738 29.841 27.2126 31.6447C27.357 32.2391 27.4179 32.8662 27.4224 33.4797C27.4416 35.6374 27.7146 37.8253 26.7501 39.9998C29.6763 39.9447 32.555 40.1178 35.4021 39.6289C37.3988 39.2862 38.9047 38.2557 39.4879 36.2386C39.7609 35.2946 39.9786 34.2967 39.9842 33.3213C40.0079 29.4286 40.0237 25.5326 39.8793 21.6433ZM34.9566 26.4417C34.9532 26.9946 34.6091 27.3575 34.1173 27.3856C33.6311 27.4137 33.1946 27.026 33.1709 26.472C33.1404 25.7652 33.163 25.055 33.163 24.347C33.1201 24.329 33.0773 24.3099 33.0333 24.2919C31.6954 25.627 30.3587 26.9631 29.0197 28.2981C28.3655 28.951 27.8691 29.0522 27.4281 28.6263C26.9814 28.1947 27.0739 27.6823 27.7202 27.0418C29.0649 25.7067 30.4117 24.374 31.8985 22.9007C31.2893 22.9007 30.8404 22.9052 30.3914 22.8985C30.0541 22.894 29.7101 22.9131 29.3818 22.8502C28.8923 22.7569 28.6272 22.4052 28.6689 21.9197C28.7095 21.4421 28.9983 21.1162 29.5161 21.1128C31.0389 21.1016 32.5618 21.0982 34.0846 21.1128C34.6272 21.1185 34.9509 21.4522 34.9554 22.004C34.969 23.4828 34.9678 24.9617 34.9566 26.4417Z" fill="#00963A"/>
<path d="M25.6909 35.1858C25.6503 36.0421 25.6278 36.8849 25.5646 37.7233C25.4665 39.0403 24.74 39.8314 23.427 39.8798C21.7022 39.9438 19.9707 39.9404 18.2459 39.8809C16.9532 39.8359 16.1625 39.0707 16.1117 37.7907C16.044 36.0545 16.0451 34.3116 16.1106 32.5754C16.1591 31.2932 16.9431 30.5223 18.2347 30.4762C19.9594 30.4144 21.6898 30.4144 23.4157 30.4751C24.7287 30.5211 25.4642 31.3078 25.5635 32.6203C25.6289 33.4777 25.6503 34.3385 25.6909 35.1858Z" fill="#00963A"/>
</g>
<defs>
<clipPath id="clip0_107_2921">
<rect width="24" height="24" fill="white" transform="translate(16 16)"/>
</clipPath>
</defs>
</svg>
