<svg width="56" height="56" viewBox="0 0 56 56" fill="none" xmlns="http://www.w3.org/2000/svg">
<rect width="56" height="56" rx="14" fill="#E2F5EA"/>
<g clip-path="url(#clip0_107_2879)">
<path d="M36.9972 25.6601C36.9962 25.1688 36.8191 25.0067 36.3081 25.001C35.891 24.9973 35.4738 25.0001 34.9545 25.0001C34.9545 24.0796 35.0079 23.2059 34.9451 22.3406C34.7004 18.9865 31.8262 16.2005 28.4598 16.0111C24.6059 15.7955 21.3511 18.6078 21.0474 22.4512C20.9818 23.2724 21.0371 24.103 21.0371 25.0001C20.5112 25.0001 20.0931 24.9964 19.674 25.001C19.1706 25.0076 19.0037 25.1707 19.0028 25.6779C19.0009 29.7697 18.9972 33.8616 19.0047 37.9535C19.0075 39.1356 19.8662 39.9924 21.0502 39.9942C25.6896 40.0008 30.3281 40.0008 34.9667 39.9942C36.1263 39.9924 36.9915 39.1374 36.9944 37.9844C37.0037 33.8766 36.999 29.7688 36.9972 25.661V25.6601ZM29.2304 33.1454C29.3157 33.8269 29.3944 34.5084 29.4788 35.189C29.551 35.7768 29.3888 35.9736 28.8095 35.9839C28.6885 35.9858 28.5676 35.9867 28.4467 35.9858C28.3023 35.9858 28.1579 35.9849 28.0126 35.9849C27.8336 35.9849 27.6536 35.9867 27.4736 35.9867C27.3564 35.9867 27.2392 35.9867 27.1221 35.9821C26.6496 35.9689 26.4658 35.7749 26.5127 35.3081C26.5793 34.6415 26.6571 33.975 26.749 33.3104C26.8033 32.9148 26.7874 32.5951 26.4762 32.2549C25.7731 31.4862 25.8771 30.2572 26.6299 29.5513C27.4033 28.8267 28.6229 28.8332 29.386 29.5654C30.1453 30.2947 30.2138 31.534 29.4835 32.3102C29.2323 32.5764 29.1901 32.8267 29.2304 33.1454ZM31.9546 24.9785H23.9994C24.0153 23.6727 23.8185 22.3734 24.4494 21.1595C25.2209 19.6746 26.9843 18.7578 28.5423 19.0381C30.4303 19.3784 31.7578 20.6936 31.9415 22.5065C32.0221 23.3071 31.9546 24.1217 31.9546 24.9785Z" fill="#00963A"/>
</g>
<defs>
<clipPath id="clip0_107_2879">
<rect width="18" height="24" fill="white" transform="translate(19 16)"/>
</clipPath>
</defs>
</svg>
