<svg width="56" height="56" viewBox="0 0 56 56" fill="none" xmlns="http://www.w3.org/2000/svg">
<rect width="56" height="56" rx="14" fill="#797676"/>
<g clip-path="url(#clip0_474_4834)">
<path d="M36.997 25.6601C36.996 25.1688 36.8189 25.0067 36.308 25.001C35.8908 24.9973 35.4736 25.0001 34.9543 25.0001C34.9543 24.0796 35.0077 23.2059 34.9449 22.3406C34.7002 18.9865 31.826 16.2005 28.4596 16.0111C24.6058 15.7955 21.3509 18.6078 21.0472 22.4512C20.9816 23.2724 21.0369 24.103 21.0369 25.0001C20.511 25.0001 20.0929 24.9964 19.6738 25.001C19.1704 25.0076 19.0035 25.1707 19.0026 25.6779C19.0007 29.7697 18.997 33.8616 19.0045 37.9535C19.0073 39.1356 19.866 39.9924 21.05 39.9942C25.6895 40.0008 30.328 40.0008 34.9665 39.9942C36.1261 39.9924 36.9914 39.1374 36.9942 37.9844C37.0035 33.8766 36.9989 29.7688 36.997 25.661V25.6601ZM29.2302 33.1454C29.3155 33.8269 29.3943 34.5084 29.4786 35.189C29.5508 35.7768 29.3886 35.9736 28.8093 35.9839C28.6884 35.9858 28.5674 35.9867 28.4465 35.9858C28.3021 35.9858 28.1578 35.9849 28.0125 35.9849C27.8334 35.9849 27.6534 35.9867 27.4734 35.9867C27.3562 35.9867 27.2391 35.9867 27.1219 35.9821C26.6494 35.9689 26.4657 35.7749 26.5125 35.3081C26.5791 34.6415 26.6569 33.975 26.7488 33.3104C26.8031 32.9148 26.7872 32.5951 26.476 32.2549C25.7729 31.4862 25.8769 30.2572 26.6297 29.5513C27.4031 28.8267 28.6227 28.8332 29.3858 29.5654C30.1452 30.2947 30.2136 31.534 29.4833 32.3102C29.2321 32.5764 29.1899 32.8267 29.2302 33.1454ZM31.9544 24.9785H23.9992C24.0152 23.6727 23.8183 22.3734 24.4492 21.1595C25.2207 19.6746 26.9841 18.7578 28.5421 19.0381C30.4301 19.3784 31.7576 20.6936 31.9413 22.5065C32.0219 23.3071 31.9544 24.1217 31.9544 24.9785Z" fill="white"/>
</g>
<defs>
<clipPath id="clip0_474_4834">
<rect width="18" height="24" fill="white" transform="translate(19 16)"/>
</clipPath>
</defs>
</svg>
