<svg width="72" height="72" viewBox="0 0 72 72" fill="none" xmlns="http://www.w3.org/2000/svg">
<rect width="72" height="72" rx="16" fill="#E2F5EA"/>
<g clip-path="url(#clip0_227_2064)">
<path d="M52.4055 30.1771H19.5424C19.9862 29.279 20.3957 28.4467 20.8108 27.6171C21.934 25.3765 23.0736 23.1456 24.1721 20.8954C24.4858 20.2523 24.9351 20 25.6282 20C32.54 20.011 39.4531 20.0082 46.3649 20.0027C46.9525 20.0027 47.4402 20.1344 47.7278 20.7103C49.2606 23.7873 50.8016 26.8616 52.3371 29.9372C52.3658 29.9948 52.374 30.062 52.4055 30.1771Z" fill="#00963A"/>
<path d="M50.1427 50.5438C50.1414 51.664 49.8277 51.9918 48.7374 51.9959C46.5006 52.0027 44.2624 51.9986 42.0256 51.9972C41.8694 51.9959 41.7119 51.9808 41.4516 51.9671V50.807C41.4516 48.1551 41.4544 45.5045 41.4503 42.854C41.4475 41.1605 40.664 40.3584 38.9998 40.3529C36.9903 40.346 34.9809 40.3447 32.9728 40.3529C31.3456 40.3598 30.5511 41.1674 30.5484 42.8101C30.5429 45.5978 30.547 48.3868 30.547 51.1745V51.9972H29.8101C27.6637 51.9972 25.5173 52 23.3722 51.9972C22.1545 51.9959 21.8559 51.7038 21.8545 50.5191C21.8532 46.5645 21.8532 42.6113 21.8559 38.6581C21.8559 38.4359 21.8765 38.2124 21.8847 38.0342C22.8558 37.9355 23.801 37.9354 24.694 37.7202C25.4296 37.5433 26.1241 37.1497 26.7994 36.7809C27.1171 36.6081 27.3048 36.5615 27.639 36.7672C30.2936 38.4099 32.9687 38.4071 35.6206 36.7521C35.926 36.5615 36.1096 36.5903 36.3986 36.7672C39.0573 38.4058 41.7228 38.3962 44.3925 36.774C44.5528 36.6767 44.8541 36.5944 44.9719 36.6767C46.506 37.7311 48.2018 38.1055 50.0989 37.908C50.1153 38.1795 50.1414 38.3962 50.1414 38.6142C50.1441 42.5907 50.1441 46.5672 50.1427 50.5438Z" fill="#00963A"/>
<path d="M53.4986 32.3423C53.5328 34.1646 51.8015 35.4563 50.1961 35.7676C47.821 36.2269 45.8143 35.2383 44.7678 32.9648C43.8637 35.2122 42.0954 36.0171 39.8654 35.8334C38.0724 35.6853 36.6753 34.8256 36.0192 32.9182C35.0973 35.2122 33.329 36.0171 31.099 35.8334C29.306 35.6853 27.9088 34.8256 27.2349 32.8661C26.7897 34.1893 25.9857 35.0244 24.8104 35.4906C23.6667 35.9445 22.5106 35.9856 21.3299 35.6469C19.7821 35.204 18.4411 33.8863 18.5013 32.3423H53.4986Z" fill="#00963A"/>
<path d="M39.26 42.4907H32.7126V51.948H39.26V42.4907Z" fill="#00963A"/>
</g>
<defs>
<clipPath id="clip0_227_2064">
<rect width="35" height="32" fill="white" transform="translate(18.5 20)"/>
</clipPath>
</defs>
</svg>
