<svg width="72" height="72" viewBox="0 0 72 72" fill="none" xmlns="http://www.w3.org/2000/svg">
<rect width="72" height="72" rx="16" fill="#E2F5EA"/>
<g clip-path="url(#clip0_227_2057)">
<path d="M52.9336 47.7888C52.5023 50.2141 50.6201 51.9179 48.2839 51.9972C45.9027 52.0778 43.8652 50.4184 43.3489 47.9782C42.883 45.7732 44.1267 43.411 46.2796 42.547C46.7933 42.3415 46.9208 42.0875 46.9022 41.5756C46.8637 40.5463 46.9008 39.5157 46.8836 38.4851C46.873 37.8065 46.4575 37.2623 45.8151 37.2556C42.9666 37.2233 40.1181 37.2422 37.1873 37.2422C37.1873 38.8841 37.1701 40.428 37.2112 41.9706C37.2165 42.1466 37.5298 42.3764 37.7475 42.4731C39.6668 43.3385 40.7579 44.8206 40.8243 46.9382C40.888 48.9134 39.992 50.4385 38.2757 51.3966C35.8693 52.7389 32.815 51.7258 31.6164 49.2265C30.4112 46.7138 31.5036 43.7053 34.0322 42.5779C34.2711 42.4718 34.5154 42.375 34.7463 42.2783V37.2623C34.5419 37.2502 34.3707 37.2314 34.1995 37.2314C31.6549 37.2287 29.1117 37.2274 26.5672 37.2314C25.508 37.2327 25.0846 37.6668 25.0793 38.7377C25.0739 39.7239 25.1018 40.7102 25.0673 41.6938C25.0514 42.1439 25.1881 42.3388 25.6168 42.5067C27.7764 43.3546 29.0613 45.6872 28.6392 47.899C28.1906 50.2558 26.2672 51.9435 23.9656 51.9972C21.652 52.0523 19.5973 50.4157 19.1142 48.1314C18.6151 45.7773 19.7778 43.4567 21.9799 42.5591C22.5161 42.3415 22.6383 42.062 22.6316 41.5312C22.6144 40.3461 22.5878 39.1529 22.7006 37.9758C22.8785 36.1417 24.3917 34.8141 26.2208 34.802C28.8091 34.7859 31.3974 34.798 33.9858 34.7966H34.7808C34.7808 33.152 34.7954 31.5704 34.7569 29.9889C34.753 29.8344 34.4331 29.6342 34.222 29.5482C30.836 28.1682 30.0356 23.7031 32.7752 21.2831C34.3163 19.922 36.1029 19.6277 37.9638 20.4783C39.8486 21.3396 40.8495 22.9144 40.8256 25.0038C40.8017 27.0583 39.7982 28.5659 37.9359 29.4474C37.6983 29.5589 37.4528 29.6516 37.1886 29.7618C37.1886 31.3407 37.1886 32.9074 37.1913 34.4741C37.1913 34.5588 37.2165 34.6421 37.2417 34.7966H38.366C40.7327 34.7966 43.1007 34.7939 45.4673 34.798C47.7849 34.802 49.2861 36.2774 49.3445 38.6262C49.3697 39.6339 49.371 40.643 49.3392 41.6495C49.3246 42.1171 49.4586 42.3347 49.9179 42.5161C52.0218 43.3492 53.3133 45.6537 52.9336 47.7888Z" fill="#00963A"/>
</g>
<defs>
<clipPath id="clip0_227_2057">
<rect width="34" height="32" fill="white" transform="translate(19 20)"/>
</clipPath>
</defs>
</svg>
