<svg width="72" height="72" viewBox="0 0 72 72" fill="none" xmlns="http://www.w3.org/2000/svg">
<rect width="72" height="72" rx="16" fill="#E2F5EA"/>
<g clip-path="url(#clip0_227_2086)">
<path d="M44.4101 27.7932C43.9685 23.3282 40.4225 19.9975 35.9344 20C32.521 20.0025 29.5669 21.9339 28.2932 25.0585C27.2697 27.5696 27.2496 30.117 28.1793 32.6668C29.7421 36.952 32.3709 40.5812 35.2499 44.0518C35.6941 44.5878 36.3348 44.5478 36.8052 43.9844C39.2539 41.0535 41.4735 37.9664 43.0788 34.4846C44.0548 32.3695 44.6466 30.1932 44.4101 27.7932ZM35.9669 31.2576C34.4104 31.2501 33.1391 29.9646 33.1654 28.4266C33.1929 26.8825 34.4905 25.6144 36.0245 25.6319C37.5647 25.6507 38.8472 26.9574 38.8222 28.4841C38.7972 30.0483 37.5434 31.2651 35.9669 31.2576Z" fill="#00963A"/>
<path d="M49.2611 44.4729C45.2559 46.548 41.3271 48.5882 37.3895 50.6108C37.2519 50.682 36.9616 50.667 36.8627 50.5696C34.807 48.5344 32.7675 46.4818 30.6592 44.3667C31.2072 44.0781 31.729 43.8033 32.297 43.5047C32.775 44.0819 33.2442 44.6541 33.7184 45.2238C34.9847 46.7442 36.9879 46.7554 38.2516 45.2537C40.3199 42.7963 42.1729 40.1903 43.767 37.3993C43.8796 37.2019 44.1936 37.1119 44.4226 36.9908C44.4877 36.9558 44.589 36.997 44.6704 36.9833C45.7164 36.8009 46.2431 37.2943 46.6185 38.2513C47.4368 40.3327 48.3615 42.3728 49.2611 44.4729Z" fill="#00963A"/>
<path d="M35.3049 51.7964C34.9195 51.8764 34.6267 51.9901 34.334 51.9913C29.9372 52.0025 25.5416 52.0013 21.1461 51.9976C20.1413 51.9976 19.7847 51.4179 20.1263 50.4784C20.3828 49.7725 20.817 49.3315 21.5014 48.9979C23.8162 47.8698 26.1009 46.6755 28.3931 45.4999C28.6659 45.3599 28.8636 45.2687 29.1451 45.5523C31.1208 47.5525 33.1178 49.5289 35.1072 51.5153C35.1497 51.5565 35.1773 51.614 35.3049 51.7964Z" fill="#00963A"/>
<path d="M31.1196 42.0041C28.0303 43.5795 24.9648 45.1437 21.798 46.759C21.8755 46.5229 21.9081 46.3892 21.9606 46.2643C23.1731 43.4421 24.3955 40.6249 25.5904 37.7964C25.8357 37.2167 26.2023 37.0156 26.8229 36.9631C27.7012 36.8882 28.1817 37.1755 28.6084 37.9751C29.3391 39.3456 30.245 40.6211 31.1196 42.0041Z" fill="#00963A"/>
<path d="M51.0127 51.9937C47.0313 52.0049 43.05 51.9986 39.0686 51.9986C39.0573 51.9612 39.0461 51.9224 39.0348 51.885C42.6671 50.0047 46.2994 48.1245 50.0043 46.2056C50.3158 46.9302 50.6186 47.6285 50.9189 48.3269C51.2467 49.0902 51.5883 49.8473 51.8986 50.6182C52.2001 51.3665 51.8098 51.9912 51.0127 51.9937Z" fill="#00963A"/>
<path d="M36.9277 28.4704C36.9202 29.0076 36.4948 29.4037 35.9505 29.3799C35.4413 29.3587 35.0534 28.9502 35.0609 28.4429C35.0672 27.9594 35.4988 27.5209 35.978 27.5109C36.4798 27.4997 36.9365 27.9607 36.9277 28.4704Z" fill="#00963A"/>
</g>
<defs>
<clipPath id="clip0_227_2086">
<rect width="32" height="32" fill="white" transform="translate(20 20)"/>
</clipPath>
</defs>
</svg>
